<svg xmlns="http://www.w3.org/2000/svg" width="50" height="50" fill="none"><path fill="url(#a)" fill-rule="evenodd" d="M43.173.202H6.213A5.763 5.763 0 0 0 .45 5.957v36.905a5.763 5.763 0 0 0 5.763 5.786h36.96a5.763 5.763 0 0 0 5.754-5.786V5.957A5.763 5.763 0 0 0 43.173.202zM21.357 35.096a1.925 1.925 0 0 1-1.941 1.918h-8.077a1.918 1.918 0 0 1-1.91-1.918V11.059c0-1.056.853-1.914 1.91-1.918h8.077a1.926 1.926 0 0 1 1.918 1.918l.023 24.037zm18.64-11.036a1.918 1.918 0 0 1-1.942 1.918h-8.077a1.926 1.926 0 0 1-1.919-1.918v-13a1.926 1.926 0 0 1 1.919-1.92h8.077a1.918 1.918 0 0 1 1.91 1.92l.031 13z" clip-rule="evenodd"/><defs><linearGradient id="a" x1="24.712" x2="24.712" y1="48.648" y2=".202" gradientUnits="userSpaceOnUse"><stop stop-color="#0052CC"/><stop offset="1" stop-color="#2684FF"/></linearGradient></defs></svg>