<svg xmlns="http://www.w3.org/2000/svg" width="50" height="50" fill="none"><g clip-path="url(#a)"><path fill="#0A66C2" d="M42.488 41.821h-7.273v-11.39c0-2.715-.048-6.211-3.782-6.211-3.788 0-4.368 2.959-4.368 6.014V41.82h-7.273V18.4h6.982v3.2h.098a7.652 7.652 0 0 1 6.889-3.783c7.37 0 8.73 4.848 8.73 11.156l-.003 12.848zM11.586 15.198a4.22 4.22 0 1 1-.001-8.44 4.22 4.22 0 0 1 .001 8.44zm3.637 26.623h-7.28V18.4h7.28v23.422zM46.113.003H4.289A3.582 3.582 0 0 0 .666 3.541v42a3.584 3.584 0 0 0 3.622 3.54h41.826a3.591 3.591 0 0 0 3.636-3.54V3.537A3.59 3.59 0 0 0 46.114 0v.003z"/></g><defs><clipPath id="a"><path fill="#fff" d="M0 0h50v49.242H0z"/></clipPath></defs></svg>