<svg xmlns="http://www.w3.org/2000/svg" width="50" height="50" fill="none"><g fill="#000" clip-path="url(#a)"><path d="M0 4.581A4.581 4.581 0 0 1 4.581 0h17.92a4.581 4.581 0 0 1 4.582 4.581v3.545a2.29 2.29 0 0 1-2.29 2.29H2.29A2.29 2.29 0 0 1 0 8.127V4.581zm0 14.376a2.29 2.29 0 0 1 2.29-2.29h43.13A4.582 4.582 0 0 1 50 21.248v11.878a2.29 2.29 0 0 1-2.29 2.29H4.58A4.581 4.581 0 0 1 0 30.837V18.956zm22.917 25a2.29 2.29 0 0 1 2.29-2.29H47.71a2.29 2.29 0 0 1 2.29 2.29v1.462A4.582 4.582 0 0 1 45.42 50H27.5a4.582 4.582 0 0 1-4.582-4.581v-1.462z"/></g><defs><clipPath id="a"><path fill="#fff" d="M0 0h50v50H0z"/></clipPath></defs></svg>