<svg style="width:100%;height:100%;" xmlns="http://www.w3.org/2000/svg"><defs><svg viewBox="0 0 135 19" id="svg9896696563"><path d="M 49.344 15.312 L 46.088 15.312 L 46.088 9.629 C 46.088 8.732 45.907 8.096 45.545 7.72 C 45.183 7.344 44.532 7.156 43.591 7.156 C 42.607 7.156 41.934 7.365 41.572 7.785 C 41.225 8.204 41.051 8.884 41.051 9.824 L 40.639 9.824 L 40.378 7.785 L 41.008 7.785 C 41.095 7.163 41.283 6.584 41.572 6.049 C 41.876 5.514 42.318 5.08 42.897 4.748 C 43.49 4.401 44.25 4.227 45.176 4.227 C 46.117 4.227 46.891 4.415 47.499 4.791 C 48.121 5.167 48.584 5.68 48.888 6.331 C 49.192 6.982 49.344 7.72 49.344 8.544 L 49.344 15.312 Z M 32.758 15.312 L 29.502 15.312 L 29.502 4.444 L 32.519 4.444 L 32.519 7.828 L 32.758 7.937 Z M 41.051 15.312 L 37.795 15.312 L 37.795 9.629 C 37.795 8.732 37.614 8.096 37.252 7.72 C 36.89 7.344 36.239 7.156 35.298 7.156 C 34.3 7.156 33.627 7.365 33.279 7.785 C 32.932 8.204 32.758 8.884 32.758 9.824 L 32.346 9.824 L 32.107 7.741 L 32.693 7.741 C 32.794 7.134 32.99 6.57 33.279 6.049 C 33.569 5.514 33.996 5.08 34.56 4.748 C 35.125 4.401 35.863 4.227 36.775 4.227 C 37.715 4.227 38.482 4.422 39.076 4.813 C 39.683 5.203 40.132 5.724 40.422 6.375 C 40.711 7.025 40.856 7.749 40.856 8.544 L 41.051 8.544 L 41.051 15.312 Z M 56.774 15.529 C 55.573 15.529 54.509 15.327 53.583 14.922 C 52.656 14.517 51.94 13.895 51.433 13.056 C 50.927 12.217 50.674 11.162 50.674 9.889 C 50.674 8.732 50.927 7.734 51.433 6.895 C 51.94 6.042 52.642 5.384 53.539 4.921 C 54.451 4.458 55.508 4.227 56.709 4.227 C 57.896 4.227 58.93 4.43 59.813 4.834 C 60.71 5.239 61.405 5.839 61.897 6.635 C 62.389 7.416 62.635 8.37 62.635 9.499 C 62.635 9.686 62.628 9.86 62.614 10.019 C 62.597 10.193 62.576 10.367 62.549 10.54 L 52.779 10.54 L 52.779 8.826 L 60.247 8.826 L 59.509 9.889 L 59.509 9.086 C 59.509 8.262 59.285 7.669 58.836 7.307 C 58.388 6.946 57.657 6.765 56.644 6.765 C 55.544 6.765 54.777 6.982 54.342 7.416 C 53.908 7.835 53.691 8.508 53.691 9.433 L 53.691 10.258 C 53.691 11.183 53.908 11.863 54.342 12.297 C 54.777 12.716 55.551 12.926 56.665 12.926 C 57.62 12.926 58.294 12.803 58.684 12.557 C 59.075 12.311 59.27 11.957 59.27 11.494 L 59.27 11.278 L 62.527 11.278 L 62.527 11.516 C 62.527 12.297 62.288 12.991 61.811 13.599 C 61.333 14.206 60.66 14.683 59.791 15.03 C 58.938 15.363 57.932 15.529 56.774 15.529 Z M 83.859 15.312 L 80.602 15.312 L 80.602 9.629 C 80.602 8.732 80.421 8.096 80.06 7.72 C 79.698 7.344 79.046 7.156 78.106 7.156 C 77.122 7.156 76.449 7.365 76.087 7.785 C 75.739 8.204 75.566 8.884 75.566 9.824 L 75.153 9.824 L 74.893 7.785 L 75.522 7.785 C 75.609 7.163 75.797 6.584 76.087 6.049 C 76.391 5.514 76.832 5.08 77.411 4.748 C 78.004 4.401 78.764 4.227 79.691 4.227 C 80.631 4.227 81.406 4.415 82.013 4.791 C 82.636 5.167 83.099 5.68 83.403 6.331 C 83.707 6.982 83.859 7.72 83.859 8.544 L 83.859 15.312 Z M 67.273 15.312 L 64.016 15.312 L 64.016 4.444 L 67.034 4.444 L 67.034 7.828 L 67.273 7.937 Z M 75.566 15.312 L 72.309 15.312 L 72.309 9.629 C 72.309 8.732 72.128 8.096 71.767 7.72 C 71.405 7.344 70.754 7.156 69.813 7.156 C 68.814 7.156 68.141 7.365 67.794 7.785 C 67.447 8.204 67.273 8.884 67.273 9.824 L 66.86 9.824 L 66.622 7.741 L 67.208 7.741 C 67.309 7.134 67.504 6.57 67.794 6.049 C 68.083 5.514 68.51 5.08 69.075 4.748 C 69.639 4.401 70.377 4.227 71.289 4.227 C 72.23 4.227 72.997 4.422 73.59 4.813 C 74.198 5.203 74.647 5.724 74.936 6.375 C 75.226 7.025 75.37 7.749 75.37 8.544 L 75.566 8.544 L 75.566 15.312 Z M 93.199 15.529 C 91.94 15.529 90.956 15.247 90.246 14.683 C 89.552 14.105 89.11 13.338 88.922 12.384 L 88.358 12.384 L 88.358 10.041 L 88.77 10.041 C 88.77 10.648 88.893 11.14 89.139 11.516 C 89.385 11.892 89.74 12.16 90.203 12.319 C 90.68 12.478 91.26 12.557 91.94 12.557 C 92.649 12.557 93.228 12.471 93.676 12.297 C 94.125 12.123 94.458 11.842 94.675 11.451 C 94.892 11.061 95.001 10.54 95.001 9.889 C 95.001 9.209 94.892 8.682 94.675 8.306 C 94.458 7.915 94.125 7.64 93.676 7.481 C 93.228 7.308 92.656 7.221 91.961 7.221 C 90.905 7.221 90.109 7.424 89.573 7.828 C 89.038 8.219 88.77 8.899 88.77 9.868 L 88.358 9.868 L 88.119 7.416 L 88.748 7.416 C 88.937 6.375 89.385 5.587 90.094 5.052 C 90.818 4.502 91.817 4.227 93.09 4.227 C 94.205 4.227 95.145 4.459 95.913 4.921 C 96.694 5.384 97.287 6.042 97.693 6.895 C 98.098 7.734 98.3 8.732 98.3 9.889 C 98.3 11.032 98.098 12.03 97.693 12.883 C 97.302 13.722 96.723 14.372 95.956 14.835 C 95.203 15.298 94.284 15.529 93.199 15.529 Z M 88.77 19 L 85.514 19 L 85.514 4.444 L 88.531 4.444 L 88.531 7.676 L 88.77 7.958 Z M 111.855 15.312 L 108.599 15.312 L 108.599 9.629 C 108.599 8.717 108.382 8.081 107.948 7.72 C 107.528 7.344 106.804 7.156 105.777 7.156 C 105.053 7.156 104.481 7.257 104.062 7.459 C 103.642 7.662 103.345 7.965 103.171 8.37 C 102.998 8.761 102.911 9.26 102.911 9.867 L 102.433 9.867 L 102.477 7.763 L 103.085 7.763 C 103.198 7.147 103.426 6.559 103.758 6.028 C 104.09 5.492 104.561 5.059 105.169 4.726 C 105.791 4.393 106.565 4.227 107.492 4.227 C 108.461 4.227 109.272 4.422 109.923 4.813 C 110.574 5.203 111.059 5.731 111.378 6.396 C 111.696 7.062 111.855 7.814 111.855 8.652 Z M 102.911 15.312 L 99.655 15.312 L 99.655 0.778 L 102.911 0.778 Z M 116.755 15.312 L 113.498 15.312 L 113.498 4.444 L 116.755 4.444 Z M 116.755 3.338 L 113.498 3.338 L 113.498 0.778 L 116.755 0.778 Z M 123.952 15.529 C 122.128 15.529 120.724 15.189 119.74 14.51 C 118.756 13.816 118.264 12.839 118.264 11.581 L 118.264 11.516 L 121.52 11.516 L 121.52 11.711 C 121.52 12.203 121.694 12.536 122.041 12.709 C 122.403 12.868 123.047 12.948 123.974 12.948 C 124.842 12.948 125.414 12.875 125.689 12.731 C 125.978 12.572 126.123 12.333 126.123 12.015 C 126.123 11.711 126.014 11.502 125.797 11.386 C 125.58 11.256 125.153 11.147 124.516 11.06 L 121.455 10.692 C 120.37 10.576 119.53 10.272 118.937 9.78 C 118.358 9.289 118.069 8.58 118.069 7.654 C 118.069 7.018 118.257 6.447 118.633 5.941 C 119.009 5.42 119.588 5.008 120.37 4.704 C 121.166 4.386 122.186 4.227 123.431 4.227 C 124.618 4.227 125.624 4.379 126.449 4.682 C 127.288 4.972 127.925 5.413 128.359 6.006 C 128.793 6.599 129.01 7.336 129.01 8.219 L 129.01 8.284 L 125.754 8.284 L 125.754 8.154 C 125.754 7.85 125.689 7.604 125.558 7.416 C 125.443 7.213 125.204 7.062 124.842 6.96 C 124.495 6.859 123.988 6.808 123.322 6.808 C 122.512 6.808 121.969 6.888 121.694 7.047 C 121.419 7.192 121.282 7.438 121.282 7.785 C 121.282 8.059 121.39 8.269 121.607 8.414 C 121.839 8.544 122.309 8.66 123.018 8.761 L 125.341 9.043 C 126.789 9.202 127.816 9.535 128.424 10.041 C 129.032 10.547 129.336 11.248 129.336 12.145 C 129.336 12.825 129.119 13.418 128.685 13.924 C 128.25 14.43 127.635 14.828 126.839 15.117 C 126.043 15.392 125.081 15.529 123.952 15.529 Z M 134.623 15.312 L 130.433 15.312 L 130.433 11.516 L 134.623 11.516 Z M 10.269 18.566 L 0.913 18.566 C 0.409 18.566 0 18.158 0 17.654 L 0 0.914 C 0 0.073 1.041 -0.32 1.598 0.311 L 10.954 10.917 C 11.101 11.084 11.182 11.298 11.182 11.52 L 11.182 17.654 C 11.182 17.896 11.086 18.128 10.914 18.299 C 10.743 18.47 10.511 18.566 10.269 18.566 Z M 13.692 18.566 L 23.048 18.566 C 23.552 18.566 23.96 18.158 23.96 17.654 L 23.96 0.914 C 23.96 0.073 22.919 -0.32 22.363 0.311 L 13.007 10.917 C 12.86 11.083 12.779 11.298 12.779 11.52 L 12.779 17.654 C 12.779 17.896 12.875 18.128 13.046 18.299 C 13.217 18.47 13.45 18.566 13.692 18.566 Z" fill="var(--token-bab5142a-9f6d-4043-b7bd-02888ac520b9, rgb(51, 51, 51))"></path></svg></defs><use href="#svg9896696563"></use></svg>