<svg style="width:100%;height:100%;" xmlns="http://www.w3.org/2000/svg"><defs><svg viewBox="0 0 55 19" id="svg12208135738"><path d="M 0.478 17.647 L 5.52 0 L 10.31 0 L 15.326 17.647 L 12.528 17.647 L 11.368 13.487 L 4.461 13.487 L 3.301 17.647 Z M 5.142 10.966 L 10.688 10.966 L 8.116 1.689 L 7.713 1.689 Z M 22.558 17.874 C 21.616 17.874 20.776 17.664 20.037 17.244 C 19.297 16.824 18.717 16.227 18.297 15.454 C 17.877 14.681 17.667 13.756 17.667 12.681 L 17.667 5.219 L 20.264 5.219 L 20.264 12.504 C 20.264 13.58 20.532 14.378 21.07 14.899 C 21.608 15.403 22.356 15.655 23.314 15.655 C 24.373 15.655 25.221 15.302 25.86 14.596 C 26.516 13.874 26.843 12.84 26.843 11.496 L 26.843 5.218 L 29.44 5.218 L 29.44 17.647 L 26.894 17.647 L 26.894 15.782 L 26.49 15.782 C 26.255 16.286 25.835 16.765 25.23 17.218 C 24.625 17.655 23.734 17.874 22.558 17.874 Z M 33.278 17.647 L 33.278 5.218 L 35.825 5.218 L 35.825 6.681 L 36.228 6.681 C 36.43 6.16 36.749 5.782 37.186 5.546 C 37.64 5.294 38.194 5.168 38.85 5.168 L 40.337 5.168 L 40.337 7.513 L 38.749 7.513 C 37.909 7.513 37.22 7.748 36.682 8.219 C 36.144 8.672 35.875 9.378 35.875 10.336 L 35.875 17.647 Z M 46.54 18 C 45.649 18 44.851 17.849 44.145 17.546 C 43.456 17.244 42.901 16.798 42.481 16.21 C 42.078 15.622 41.876 14.908 41.876 14.067 C 41.876 13.21 42.078 12.504 42.481 11.95 C 42.901 11.378 43.464 10.95 44.17 10.664 C 44.893 10.378 45.708 10.235 46.616 10.235 L 50.397 10.235 L 50.397 9.429 C 50.397 8.706 50.179 8.126 49.742 7.689 C 49.305 7.252 48.633 7.034 47.725 7.034 C 46.834 7.034 46.154 7.244 45.683 7.664 C 45.212 8.084 44.901 8.63 44.75 9.303 L 42.33 8.521 C 42.526 7.859 42.852 7.242 43.288 6.706 C 43.742 6.151 44.338 5.706 45.078 5.37 C 45.817 5.034 46.708 4.866 47.75 4.866 C 49.364 4.866 50.633 5.277 51.557 6.101 C 52.481 6.924 52.943 8.092 52.943 9.605 L 52.943 14.723 C 52.943 15.227 53.179 15.479 53.649 15.479 L 54.708 15.479 L 54.708 17.647 L 52.767 17.647 C 52.179 17.647 51.7 17.496 51.33 17.193 C 50.96 16.891 50.775 16.479 50.775 15.958 L 50.775 15.882 L 50.397 15.882 C 50.263 16.134 50.061 16.428 49.792 16.765 C 49.523 17.101 49.128 17.395 48.607 17.647 C 48.086 17.882 47.397 18 46.54 18 Z M 46.918 15.857 C 47.96 15.857 48.801 15.563 49.439 14.975 C 50.078 14.37 50.397 13.546 50.397 12.504 L 50.397 12.252 L 46.767 12.252 C 46.078 12.252 45.523 12.403 45.103 12.706 C 44.683 12.992 44.473 13.42 44.473 13.992 C 44.473 14.563 44.691 15.017 45.128 15.353 C 45.565 15.689 46.162 15.857 46.918 15.857 Z" fill="var(--token-bab5142a-9f6d-4043-b7bd-02888ac520b9, rgb(51, 51, 51))"></path></svg></defs><use href="#svg12208135738"></use></svg>