<svg style="width:100%;height:100%;" xmlns="http://www.w3.org/2000/svg"><defs><svg viewBox="0 0 84 24" id="svg11242586589"><path d="M 31.083 18.806 C 30.063 18.806 29.239 18.731 28.61 18.58 C 27.981 18.43 27.525 18.204 27.24 17.904 C 26.956 17.614 26.813 17.262 26.813 16.845 C 26.813 16.325 27.021 15.902 27.436 15.578 C 27.863 15.243 28.497 15.023 29.339 14.919 L 29.339 14.659 C 28.699 14.659 28.213 14.584 27.881 14.433 C 27.549 14.283 27.382 14.04 27.382 13.705 C 27.382 13.392 27.543 13.115 27.863 12.872 C 28.195 12.629 28.735 12.444 29.482 12.317 L 29.482 12.039 C 28.77 11.969 28.213 11.727 27.809 11.31 C 27.418 10.894 27.223 10.356 27.223 9.697 C 27.223 9.106 27.382 8.591 27.703 8.152 C 28.035 7.701 28.509 7.348 29.126 7.093 C 29.754 6.839 30.513 6.712 31.403 6.712 L 36.028 6.712 L 36.028 8.464 L 33.04 8.048 L 33.04 8.343 C 33.822 8.47 34.386 8.69 34.73 9.002 C 35.086 9.303 35.263 9.696 35.263 10.182 C 35.263 10.645 35.109 11.061 34.801 11.431 C 34.505 11.79 34.071 12.074 33.502 12.282 C 32.933 12.478 32.233 12.577 31.403 12.577 C 31.213 12.577 31.023 12.571 30.834 12.559 C 30.578 12.527 30.323 12.493 30.069 12.455 C 29.784 12.617 29.565 12.762 29.411 12.889 C 29.268 13.016 29.197 13.138 29.197 13.253 C 29.197 13.334 29.251 13.404 29.357 13.462 C 29.464 13.508 29.6 13.543 29.766 13.566 C 29.932 13.589 30.104 13.6 30.282 13.6 L 32.88 13.6 C 33.105 13.6 33.401 13.618 33.769 13.653 C 34.149 13.687 34.522 13.78 34.89 13.93 C 35.27 14.069 35.584 14.301 35.833 14.624 C 36.094 14.936 36.224 15.388 36.224 15.978 C 36.224 16.626 36.034 17.158 35.655 17.574 C 35.275 18.002 34.706 18.314 33.947 18.511 C 33.188 18.708 32.233 18.806 31.083 18.806 Z M 31.19 16.984 C 31.972 16.984 32.583 16.943 33.022 16.863 C 33.473 16.782 33.787 16.66 33.965 16.498 C 34.143 16.336 34.232 16.128 34.232 15.874 C 34.232 15.642 34.172 15.463 34.054 15.335 C 33.935 15.197 33.781 15.098 33.591 15.041 C 33.413 14.983 33.227 14.948 33.04 14.937 C 32.88 14.926 32.72 14.92 32.559 14.919 L 30.3 14.919 C 29.766 15.035 29.393 15.197 29.179 15.405 C 28.966 15.602 28.859 15.827 28.859 16.082 C 28.859 16.336 28.954 16.527 29.144 16.654 C 29.333 16.782 29.6 16.868 29.944 16.915 C 30.3 16.961 30.715 16.984 31.19 16.984 Z M 31.332 11.345 C 31.913 11.345 32.358 11.206 32.666 10.928 C 32.986 10.639 33.147 10.269 33.147 9.818 C 33.147 9.332 32.986 8.933 32.666 8.621 C 32.346 8.308 31.895 8.152 31.314 8.152 C 30.721 8.152 30.259 8.308 29.926 8.621 C 29.606 8.921 29.446 9.309 29.446 9.783 C 29.446 10.084 29.517 10.356 29.66 10.599 C 29.814 10.83 30.027 11.015 30.3 11.154 C 30.585 11.281 30.929 11.345 31.332 11.345 Z M 40.823 16.064 C 40.052 16.064 39.376 15.96 38.795 15.752 C 38.213 15.532 37.727 15.22 37.336 14.815 C 36.945 14.41 36.648 13.925 36.446 13.358 C 36.245 12.791 36.144 12.16 36.144 11.466 C 36.144 10.772 36.239 10.124 36.429 9.523 C 36.63 8.921 36.921 8.401 37.3 7.961 C 37.68 7.51 38.148 7.163 38.706 6.92 C 39.275 6.666 39.921 6.538 40.645 6.538 C 41.345 6.538 41.961 6.654 42.495 6.885 C 43.019 7.098 43.479 7.439 43.829 7.874 C 44.185 8.314 44.44 8.852 44.594 9.488 C 44.76 10.113 44.814 10.824 44.754 11.622 L 37.585 11.709 L 37.585 10.425 L 43.296 10.356 L 42.673 11.085 C 42.732 10.46 42.679 9.945 42.513 9.54 C 42.359 9.124 42.121 8.811 41.801 8.603 C 41.481 8.395 41.101 8.291 40.663 8.291 C 40.164 8.291 39.738 8.418 39.382 8.673 C 39.038 8.915 38.771 9.268 38.581 9.731 C 38.403 10.194 38.314 10.749 38.314 11.397 C 38.314 12.415 38.534 13.173 38.973 13.67 C 39.412 14.167 40.034 14.416 40.841 14.416 C 41.196 14.416 41.493 14.37 41.73 14.277 C 41.979 14.173 42.181 14.046 42.335 13.895 C 42.495 13.742 42.622 13.559 42.708 13.358 C 42.802 13.166 42.862 12.961 42.886 12.75 L 44.897 13.062 C 44.841 13.479 44.715 13.884 44.523 14.26 C 44.333 14.618 44.072 14.937 43.74 15.214 C 43.408 15.48 42.999 15.689 42.513 15.839 C 42.038 15.989 41.475 16.064 40.823 16.064 Z M 45.636 15.839 L 45.636 6.781 L 47.557 6.781 L 47.469 9.974 L 47.735 9.974 C 47.866 9.141 48.073 8.476 48.358 7.978 C 48.655 7.47 49.022 7.105 49.461 6.885 C 49.9 6.654 50.41 6.538 50.991 6.538 C 51.525 6.538 51.975 6.631 52.343 6.816 C 52.702 6.982 53.014 7.233 53.25 7.545 C 53.492 7.853 53.678 8.199 53.802 8.569 C 53.945 8.955 54.041 9.357 54.086 9.766 C 54.134 10.182 54.158 10.587 54.158 10.98 L 54.158 15.839 L 51.916 15.839 L 51.916 11.24 C 51.916 10.998 51.898 10.72 51.863 10.407 C 51.84 10.088 51.774 9.773 51.667 9.47 C 51.56 9.17 51.394 8.921 51.169 8.724 C 50.944 8.528 50.623 8.429 50.208 8.429 C 49.71 8.429 49.289 8.586 48.945 8.898 C 48.613 9.199 48.352 9.633 48.162 10.199 C 47.985 10.754 47.895 11.408 47.895 12.16 L 47.895 15.838 L 45.636 15.838 Z M 59.544 16.064 C 58.773 16.064 58.097 15.96 57.516 15.752 C 56.935 15.532 56.448 15.22 56.057 14.815 C 55.666 14.41 55.369 13.925 55.168 13.358 C 54.966 12.791 54.865 12.16 54.865 11.466 C 54.865 10.772 54.96 10.124 55.15 9.523 C 55.351 8.921 55.642 8.401 56.021 7.961 C 56.401 7.51 56.87 7.163 57.427 6.92 C 57.996 6.666 58.643 6.538 59.366 6.538 C 60.066 6.538 60.682 6.654 61.216 6.885 C 61.74 7.098 62.2 7.439 62.551 7.874 C 62.906 8.314 63.161 8.852 63.315 9.488 C 63.481 10.113 63.535 10.824 63.475 11.622 L 56.306 11.709 L 56.306 10.425 L 62.017 10.356 L 61.394 11.085 C 61.453 10.46 61.4 9.945 61.234 9.54 C 61.08 9.124 60.843 8.811 60.522 8.603 C 60.202 8.395 59.823 8.291 59.384 8.291 C 58.886 8.291 58.459 8.418 58.103 8.673 C 57.759 8.915 57.492 9.268 57.302 9.731 C 57.125 10.194 57.035 10.749 57.035 11.397 C 57.035 12.415 57.255 13.173 57.694 13.67 C 58.133 14.167 58.755 14.416 59.562 14.416 C 59.917 14.416 60.214 14.37 60.451 14.277 C 60.7 14.173 60.902 14.046 61.056 13.895 C 61.216 13.742 61.343 13.559 61.43 13.358 C 61.523 13.166 61.583 12.961 61.608 12.75 L 63.618 13.062 C 63.562 13.479 63.436 13.884 63.244 14.26 C 63.054 14.618 62.794 14.937 62.461 15.214 C 62.129 15.48 61.72 15.689 61.234 15.839 C 60.759 15.989 60.196 16.064 59.544 16.064 Z M 66.357 15.839 L 63.208 6.781 L 65.663 6.781 L 67.797 14.051 L 68.011 14.051 L 70.164 6.781 L 72.512 6.781 L 69.363 15.839 Z M 74.778 16.064 C 74.268 16.064 73.806 15.978 73.391 15.804 C 72.994 15.624 72.66 15.335 72.43 14.971 C 72.193 14.59 72.074 14.121 72.074 13.566 C 72.074 12.964 72.205 12.484 72.466 12.126 C 72.725 11.768 73.074 11.481 73.48 11.293 C 73.913 11.082 74.374 10.931 74.85 10.842 C 75.321 10.74 75.796 10.653 76.273 10.581 C 76.771 10.512 77.156 10.448 77.429 10.39 C 77.702 10.321 77.892 10.229 77.998 10.113 C 78.117 9.997 78.176 9.835 78.176 9.627 C 78.176 9.361 78.111 9.13 77.981 8.933 C 77.862 8.725 77.678 8.563 77.429 8.447 C 77.192 8.331 76.896 8.274 76.54 8.274 C 76.211 8.273 75.885 8.332 75.579 8.447 C 75.271 8.563 75.004 8.748 74.778 9.002 C 74.565 9.257 74.429 9.592 74.369 10.009 L 72.359 9.558 C 72.442 9.025 72.608 8.574 72.857 8.204 C 73.106 7.822 73.415 7.51 73.782 7.267 C 74.166 7.011 74.594 6.823 75.045 6.712 C 75.52 6.596 76.024 6.538 76.557 6.538 C 77.245 6.538 77.832 6.631 78.319 6.816 C 78.817 6.989 79.214 7.25 79.511 7.597 C 79.819 7.944 80.038 8.36 80.169 8.846 C 80.311 9.32 80.382 9.858 80.382 10.46 L 80.382 12.126 L 80.418 13.358 L 80.453 14.607 C 80.477 15.023 80.501 15.434 80.525 15.839 L 78.532 15.839 C 78.507 15.451 78.484 15.064 78.461 14.676 C 78.449 14.271 78.437 13.855 78.425 13.427 L 78.194 13.427 C 78.065 13.91 77.842 14.363 77.536 14.763 C 77.227 15.156 76.842 15.474 76.38 15.718 C 75.917 15.949 75.383 16.064 74.778 16.064 Z M 75.632 14.433 C 75.882 14.433 76.136 14.387 76.397 14.295 C 76.668 14.197 76.92 14.056 77.144 13.878 C 77.399 13.687 77.616 13.451 77.785 13.184 C 77.975 12.895 78.117 12.559 78.212 12.178 L 78.194 11.032 L 78.639 11.05 C 78.461 11.223 78.23 11.356 77.945 11.449 C 77.647 11.536 77.344 11.605 77.038 11.657 C 76.718 11.703 76.391 11.755 76.059 11.813 C 75.739 11.871 75.443 11.952 75.17 12.056 C 74.897 12.16 74.678 12.305 74.512 12.49 C 74.357 12.675 74.28 12.924 74.28 13.236 C 74.28 13.606 74.405 13.901 74.654 14.121 C 74.903 14.329 75.229 14.433 75.632 14.433 Z M 82.367 16.047 C 81.881 16.047 81.513 15.943 81.264 15.735 C 81.015 15.526 80.891 15.208 80.891 14.78 C 80.891 14.329 81.015 13.999 81.264 13.791 C 81.513 13.583 81.881 13.479 82.367 13.479 C 82.865 13.479 83.239 13.583 83.488 13.791 C 83.749 13.999 83.879 14.329 83.879 14.781 C 83.879 15.625 83.375 16.047 82.367 16.047 Z" fill="var(--token-bab5142a-9f6d-4043-b7bd-02888ac520b9, rgb(51, 51, 51))"></path><path d="M 11.755 0.102 C 5.276 0.958 0.013 6.979 0 13.549 C -0.013 20.12 5.229 24.754 11.707 23.898 C 18.185 23.042 23.451 17.021 23.462 10.451 C 23.472 3.88 18.233 -0.754 11.755 0.102 Z M 3.515 13.08 C 3.506 17.659 7.171 20.889 11.7 20.293 C 16.229 19.696 19.912 15.499 19.919 10.92 Z" fill="var(--token-bab5142a-9f6d-4043-b7bd-02888ac520b9, rgb(51, 51, 51))"></path></svg></defs><use href="#svg11242586589"></use></svg>