<svg style="width:100%;height:100%;" xmlns="http://www.w3.org/2000/svg"><defs><svg viewBox="0 0 107 18" id="svg10766503072"><path d="M 0 8.106 L 23.598 8.106 C 23.598 3.423 19.534 2.252 17.502 2.252 L 0 2.252 Z M 23.598 11.942 L 0 11.942 C 0 16.625 4.064 17.796 6.096 17.796 L 23.598 17.796 L 23.598 11.942 Z M 45.319 1.952 L 45.319 17.796 L 42.153 17.796 L 42.153 7.491 L 37.924 17.796 L 35.526 17.796 L 31.275 7.491 L 31.275 17.796 L 28.109 17.796 L 28.109 1.952 L 31.704 1.952 L 36.725 13.733 L 41.745 1.952 Z M 47.635 11.463 C 47.635 10.192 47.883 9.064 48.381 8.081 C 48.894 7.097 49.58 6.34 50.439 5.811 C 51.313 5.281 52.286 5.016 53.356 5.016 C 54.291 5.016 55.105 5.206 55.799 5.584 C 56.507 5.962 57.073 6.439 57.495 7.014 L 57.495 5.221 L 60.684 5.221 L 60.684 17.796 L 57.495 17.796 L 57.495 15.957 C 57.088 16.547 56.523 17.039 55.799 17.433 C 55.09 17.811 54.268 18 53.334 18 C 52.278 18 51.313 17.728 50.439 17.183 C 49.58 16.638 48.894 15.874 48.381 14.89 C 47.883 13.892 47.635 12.749 47.635 11.463 Z M 57.495 11.508 C 57.495 10.736 57.344 10.078 57.043 9.533 C 56.741 8.973 56.334 8.55 55.821 8.262 C 55.309 7.96 54.758 7.808 54.171 7.808 C 53.583 7.808 53.04 7.952 52.542 8.24 C 52.045 8.527 51.638 8.951 51.321 9.511 C 51.02 10.055 50.869 10.706 50.869 11.463 C 50.869 12.219 51.02 12.885 51.321 13.46 C 51.638 14.02 52.045 14.451 52.542 14.754 C 53.055 15.057 53.598 15.208 54.171 15.208 C 54.758 15.208 55.309 15.064 55.821 14.777 C 56.334 14.474 56.741 14.05 57.043 13.506 C 57.344 12.946 57.495 12.28 57.495 11.508 Z M 62.962 11.463 C 62.962 10.192 63.211 9.064 63.708 8.081 C 64.221 7.097 64.914 6.34 65.789 5.811 C 66.663 5.281 67.636 5.016 68.706 5.016 C 69.52 5.016 70.297 5.198 71.035 5.561 C 71.774 5.909 72.362 6.378 72.799 6.968 L 72.799 0.999 L 76.011 0.999 L 76.011 17.796 L 72.799 17.796 L 72.799 15.934 C 72.407 16.555 71.857 17.054 71.149 17.432 C 70.44 17.811 69.618 18 68.683 18 C 67.628 18 66.663 17.728 65.789 17.183 C 64.914 16.638 64.221 15.874 63.708 14.89 C 63.211 13.892 62.962 12.749 62.962 11.463 Z M 72.822 11.508 C 72.822 10.736 72.671 10.078 72.37 9.533 C 72.068 8.973 71.661 8.55 71.148 8.262 C 70.636 7.96 70.085 7.808 69.497 7.808 C 68.91 7.808 68.367 7.952 67.869 8.24 C 67.372 8.527 66.965 8.951 66.648 9.511 C 66.347 10.055 66.196 10.706 66.196 11.463 C 66.196 12.219 66.347 12.885 66.648 13.46 C 66.965 14.02 67.372 14.451 67.869 14.754 C 68.382 15.057 68.925 15.208 69.497 15.208 C 70.085 15.208 70.636 15.064 71.148 14.777 C 71.661 14.474 72.068 14.05 72.37 13.506 C 72.671 12.946 72.822 12.28 72.822 11.508 Z M 82.269 7.173 C 82.676 6.507 83.204 5.985 83.852 5.607 C 84.515 5.228 85.269 5.039 86.114 5.039 L 86.114 8.376 L 85.277 8.376 C 84.282 8.376 83.528 8.611 83.015 9.08 C 82.518 9.549 82.269 10.366 82.269 11.531 L 82.269 17.796 L 79.103 17.796 L 79.103 5.221 L 82.269 5.221 L 82.269 7.173 Z M 89.852 3.723 C 89.294 3.723 88.827 3.549 88.45 3.201 C 88.088 2.837 87.907 2.391 87.907 1.861 C 87.907 1.332 88.088 0.893 88.45 0.545 C 88.827 0.182 89.294 0 89.852 0 C 90.41 0 90.869 0.182 91.231 0.545 C 91.608 0.893 91.797 1.332 91.797 1.861 C 91.797 2.391 91.608 2.837 91.231 3.201 C 90.869 3.549 90.41 3.723 89.852 3.723 Z M 91.412 5.221 L 91.412 17.796 L 88.246 17.796 L 88.246 5.221 Z M 93.726 11.463 C 93.726 10.192 93.975 9.064 94.473 8.081 C 94.985 7.097 95.679 6.34 96.553 5.811 C 97.428 5.281 98.4 5.016 99.47 5.016 C 100.285 5.016 101.061 5.198 101.8 5.561 C 102.539 5.909 103.127 6.378 103.564 6.968 L 103.564 0.999 L 106.775 0.999 L 106.775 17.796 L 103.564 17.796 L 103.564 15.934 C 103.172 16.555 102.621 17.054 101.913 17.432 C 101.204 17.811 100.383 18 99.448 18 C 98.392 18 97.428 17.728 96.553 17.183 C 95.679 16.638 94.985 15.874 94.473 14.89 C 93.975 13.892 93.726 12.749 93.726 11.463 Z M 103.586 11.508 C 103.586 10.736 103.436 10.078 103.134 9.533 C 102.833 8.973 102.425 8.55 101.913 8.262 C 101.4 7.96 100.85 7.808 100.262 7.808 C 99.674 7.808 99.131 7.952 98.634 8.24 C 98.136 8.527 97.729 8.951 97.413 9.511 C 97.111 10.055 96.96 10.706 96.96 11.463 C 96.96 12.219 97.111 12.885 97.413 13.46 C 97.729 14.02 98.136 14.451 98.634 14.754 C 99.146 15.057 99.689 15.208 100.262 15.208 C 100.85 15.208 101.4 15.064 101.913 14.777 C 102.425 14.474 102.833 14.05 103.134 13.506 C 103.436 12.946 103.586 12.28 103.586 11.508 Z" fill="var(--token-bab5142a-9f6d-4043-b7bd-02888ac520b9, rgb(51, 51, 51))"></path></svg></defs><use href="#svg10766503072"></use></svg>