<svg style="width:100%;height:100%;" xmlns="http://www.w3.org/2000/svg"><defs><svg viewBox="0 0 95 26" id="svg11697650428"><path d="M 90.618 19.267 C 89.867 19.267 89.185 19.145 88.574 18.901 C 87.963 18.644 87.434 18.283 86.988 17.82 C 86.542 17.345 86.205 16.785 85.975 16.142 C 85.746 15.486 85.631 14.759 85.631 13.961 C 85.631 12.881 85.835 11.948 86.243 11.164 C 86.663 10.366 87.249 9.749 88.001 9.311 C 88.765 8.861 89.663 8.636 90.695 8.636 C 91.548 8.636 92.306 8.797 92.969 9.119 C 93.631 9.44 94.159 9.89 94.555 10.469 C 94.962 11.035 95.185 11.698 95.223 12.457 L 92.892 12.457 C 92.828 12.058 92.688 11.723 92.472 11.453 C 92.268 11.183 91.998 10.97 91.688 10.836 C 91.37 10.694 91.02 10.624 90.638 10.624 C 90.09 10.624 89.618 10.765 89.224 11.048 C 88.829 11.318 88.529 11.704 88.326 12.206 C 88.135 12.707 88.039 13.293 88.039 13.961 C 88.039 14.695 88.147 15.306 88.364 15.794 C 88.58 16.283 88.88 16.656 89.262 16.914 C 89.657 17.158 90.109 17.28 90.618 17.28 C 91.064 17.28 91.453 17.203 91.784 17.048 C 92.115 16.882 92.376 16.656 92.567 16.373 C 92.771 16.078 92.892 15.743 92.93 15.37 L 95.261 15.37 C 95.211 16.155 94.981 16.843 94.573 17.434 C 94.166 18.013 93.625 18.463 92.949 18.785 C 92.274 19.107 91.497 19.267 90.618 19.267 Z M 82.063 19.094 L 82.063 8.829 L 84.451 8.829 L 84.451 19.094 Z M 82.063 7.382 L 82.063 5.028 L 84.451 5.028 L 84.451 7.382 L 82.063 7.382 Z M 78.871 19.094 C 78.246 19.094 77.756 19.004 77.399 18.824 C 77.055 18.631 76.813 18.361 76.673 18.013 C 76.533 17.666 76.463 17.248 76.463 16.759 L 76.463 10.778 L 74.591 10.778 L 74.591 8.829 L 76.463 8.829 L 76.463 5.935 L 78.832 5.684 L 78.832 8.829 L 80.992 8.829 L 80.992 10.778 L 78.832 10.778 L 78.832 16.315 C 78.832 16.637 78.903 16.856 79.042 16.971 C 79.183 17.074 79.399 17.126 79.692 17.126 L 80.992 17.126 L 80.992 19.094 Z M 64.82 19.094 L 64.82 8.829 L 67.113 8.829 L 67.209 10.778 L 67.323 10.778 C 67.616 10.058 68.062 9.524 68.661 9.177 C 69.259 8.816 69.928 8.636 70.667 8.636 C 71.177 8.636 71.648 8.72 72.081 8.887 C 72.519 9.037 72.914 9.296 73.227 9.64 C 73.559 9.974 73.813 10.418 73.992 10.971 C 74.183 11.511 74.278 12.167 74.278 12.939 L 74.278 19.094 L 71.89 19.094 L 71.89 13.46 C 71.89 12.817 71.813 12.289 71.661 11.878 C 71.508 11.453 71.272 11.138 70.953 10.932 C 70.648 10.726 70.246 10.624 69.75 10.624 C 69.215 10.624 68.756 10.752 68.374 11.01 C 68.005 11.267 67.718 11.608 67.514 12.032 C 67.31 12.457 67.209 12.926 67.209 13.441 L 67.209 19.094 L 64.82 19.094 Z M 57.138 19.267 C 56.526 19.267 55.966 19.158 55.456 18.94 C 54.96 18.708 54.527 18.367 54.157 17.917 C 53.801 17.467 53.527 16.914 53.336 16.258 C 53.145 15.589 53.049 14.823 53.049 13.961 C 53.049 12.791 53.215 11.813 53.546 11.029 C 53.89 10.231 54.367 9.633 54.979 9.234 C 55.603 8.836 56.323 8.636 57.138 8.636 C 57.699 8.636 58.195 8.726 58.628 8.906 C 59.074 9.073 59.456 9.311 59.775 9.62 C 60.093 9.929 60.341 10.304 60.501 10.72 L 60.635 10.72 L 60.73 8.829 L 63.023 8.829 L 63.023 19.094 L 60.635 19.094 L 60.635 17.184 L 60.501 17.184 C 60.259 17.814 59.845 18.322 59.259 18.708 C 58.673 19.081 57.966 19.267 57.138 19.267 Z M 58.036 17.3 C 58.609 17.3 59.081 17.164 59.45 16.894 C 59.825 16.633 60.122 16.272 60.31 15.852 C 60.499 15.421 60.597 14.954 60.596 14.483 L 60.596 13.421 C 60.596 12.932 60.501 12.476 60.31 12.051 C 60.119 11.614 59.832 11.267 59.45 11.01 C 59.081 10.739 58.609 10.604 58.036 10.604 C 57.527 10.604 57.081 10.726 56.698 10.971 C 56.316 11.215 56.017 11.588 55.8 12.09 C 55.584 12.579 55.476 13.203 55.476 13.961 C 55.476 14.695 55.584 15.312 55.8 15.814 C 56.017 16.315 56.316 16.689 56.698 16.933 C 57.081 17.177 57.527 17.3 58.036 17.3 Z M 49.48 19.094 L 49.48 5.028 L 51.869 5.028 L 51.869 19.094 L 49.48 19.094 Z M 46.288 19.094 C 45.664 19.094 45.174 19.004 44.817 18.824 C 44.473 18.631 44.231 18.361 44.091 18.013 C 43.951 17.666 43.881 17.248 43.881 16.759 L 43.881 10.778 L 42.008 10.778 L 42.008 8.829 L 43.881 8.829 L 43.881 5.935 L 46.25 5.684 L 46.25 8.829 L 48.409 8.829 L 48.409 10.778 L 46.25 10.778 L 46.25 16.315 C 46.25 16.637 46.32 16.856 46.46 16.971 C 46.6 17.074 46.817 17.126 47.11 17.126 L 48.409 17.126 L 48.409 19.094 Z M 30.118 19.094 L 34.914 5.028 L 38.468 5.028 L 43.264 19.094 L 40.647 19.094 L 39.596 16.007 L 33.787 16.007 L 32.755 19.094 Z M 34.399 14.039 L 39.003 14.039 L 37.628 10.083 L 36.749 7.363 L 36.653 7.363 L 35.755 10.083 Z" fill="var(--token-bab5142a-9f6d-4043-b7bd-02888ac520b9, rgb(51, 51, 51))"></path><path d="M 25.748 13 C 25.748 20.18 19.984 26 12.874 26 C 5.764 26 0 20.18 0 13 C 0 5.82 5.764 0 12.874 0 C 19.984 0 25.748 5.82 25.748 13 Z M 12.874 24.892 C 19.378 24.892 24.651 19.568 24.651 13 C 24.651 6.432 19.378 1.108 12.874 1.108 C 6.37 1.108 1.097 6.432 1.097 13 C 1.097 19.568 6.37 24.892 12.874 24.892 Z" fill="var(--token-bab5142a-9f6d-4043-b7bd-02888ac520b9, rgb(51, 51, 51))"></path><g transform="translate(6.295 4.531)"><path d="M 6.972 0.281 C 6.907 0.111 6.746 0 6.566 0 C 6.387 0 6.225 0.111 6.16 0.281 C 4.276 4.848 0.771 7.632 0.186 8.074 C -0.062 8.262 -0.062 8.651 0.186 8.838 C 0.771 9.28 4.276 12.064 6.16 16.631 C 6.225 16.8 6.387 16.912 6.566 16.912 C 6.746 16.912 6.907 16.8 6.972 16.631 C 8.856 12.064 12.361 9.28 12.946 8.838 C 13.195 8.651 13.195 8.261 12.946 8.074 C 12.361 7.632 8.856 4.848 6.972 0.281 Z" fill="var(--token-bab5142a-9f6d-4043-b7bd-02888ac520b9, rgb(51, 51, 51))"></path></g></svg></defs><use href="#svg11697650428"></use></svg>