<svg xmlns="http://www.w3.org/2000/svg" width="50" height="50" fill="none"><g fill="#5E6AD2" clip-path="url(#a)"><path d="m.315 29.218 20.467 20.467C10.33 47.918 2.082 39.67.315 29.218zM0 23.662 26.338 50a25.003 25.003 0 0 0 4.572-.67L.67 19.09A25 25 0 0 0 0 23.662zm1.981-8.502 32.86 32.859a24.953 24.953 0 0 0 3.437-1.804L3.786 11.721A24.94 24.94 0 0 0 1.98 15.16zm4.031-6.453C10.6 3.376 17.397 0 24.982 0 38.799 0 50 11.2 50 25.018c0 7.585-3.376 14.382-8.707 18.97L6.012 8.707z"/></g><defs><clipPath id="a"><path fill="#fff" d="M0 0h50v50H0z"/></clipPath></defs></svg>