<svg xmlns="http://www.w3.org/2000/svg" width="50" height="36" fill="none"><g clip-path="url(#a)"><path fill="url(#b)" d="M48.696 34.89h-8.645a1.193 1.193 0 0 1-1.194-1.194V1.787a1.196 1.196 0 0 1 1.194-1.19h8.643a1.194 1.194 0 0 1 1.196 1.19v31.91a1.189 1.189 0 0 1-1.194 1.194z"/><path fill="url(#c)" d="M8.628 35.01.906 31.122a1.193 1.193 0 0 1-.531-1.602l14.326-28.5a1.194 1.194 0 0 1 1.603-.53l7.724 3.88a1.194 1.194 0 0 1 .53 1.602L10.23 34.48a1.194 1.194 0 0 1-1.602.53z"/><path fill="url(#d)" d="M31.436 34.367 37.56 3.293a1.194 1.194 0 0 0-.934-1.4L28.153.181a1.196 1.196 0 0 0-1.408.939l-6.123 31.076a1.195 1.195 0 0 0 .937 1.401l8.47 1.71a1.19 1.19 0 0 0 1.407-.94z"/></g><defs><linearGradient id="b" x1="28.372" x2="51.696" y1="23.645" y2="15.046" gradientUnits="userSpaceOnUse"><stop offset=".02" stop-color="#B02DE9"/><stop offset=".8" stop-color="#6D00CC"/></linearGradient><linearGradient id="c" x1="7.901" x2="32.974" y1="19.722" y2="8.88" gradientUnits="userSpaceOnUse"><stop stop-color="#F0F"/><stop offset=".18" stop-color="#E80DF9"/><stop offset=".54" stop-color="#C024ED"/><stop offset=".73" stop-color="#B02DE9"/></linearGradient><linearGradient id="d" x1="2.051" x2="53.449" y1="27.701" y2="8.778" gradientUnits="userSpaceOnUse"><stop offset=".02" stop-color="#F0F"/><stop offset=".09" stop-color="#E80DF9"/><stop offset=".23" stop-color="#C024ED"/><stop offset=".3" stop-color="#B02DE9"/><stop offset=".42" stop-color="#A42BE3"/><stop offset=".63" stop-color="#8527D5"/><stop offset=".85" stop-color="#6021C3"/></linearGradient><clipPath id="a"><path fill="#fff" d="M0 0h50v35.459H0z"/></clipPath></defs></svg>