<svg xmlns="http://www.w3.org/2000/svg" width="50" height="50" fill="none"><g clip-path="url(#a)"><path fill="#E01E5A" d="M10.709 31.496a5.192 5.192 0 0 1-5.197 5.197 5.192 5.192 0 0 1-5.197-5.197 5.192 5.192 0 0 1 5.197-5.197h5.197v5.197zm2.598 0a5.192 5.192 0 0 1 5.197-5.197 5.192 5.192 0 0 1 5.197 5.197v12.992a5.192 5.192 0 0 1-5.197 5.197 5.192 5.192 0 0 1-5.197-5.197V31.496z"/><path fill="#36C5F0" d="M18.504 10.63a5.192 5.192 0 0 1-5.197-5.197A5.192 5.192 0 0 1 18.504.236 5.192 5.192 0 0 1 23.7 5.433v5.197h-5.197zm0 2.638a5.192 5.192 0 0 1 5.197 5.197 5.192 5.192 0 0 1-5.197 5.196H5.472a5.192 5.192 0 0 1-5.196-5.196 5.192 5.192 0 0 1 5.196-5.197h13.032z"/><path fill="#2EB67D" d="M39.33 18.465a5.192 5.192 0 0 1 5.198-5.197 5.192 5.192 0 0 1 5.196 5.197 5.192 5.192 0 0 1-5.196 5.196H39.33v-5.196zm-2.598 0a5.192 5.192 0 0 1-5.197 5.196 5.192 5.192 0 0 1-5.196-5.196V5.433A5.192 5.192 0 0 1 31.535.236a5.192 5.192 0 0 1 5.197 5.197v13.032z"/><path fill="#ECB22E" d="M31.535 39.291a5.192 5.192 0 0 1 5.197 5.197 5.192 5.192 0 0 1-5.197 5.197 5.192 5.192 0 0 1-5.196-5.197v-5.197h5.196zm0-2.598a5.192 5.192 0 0 1-5.196-5.197 5.192 5.192 0 0 1 5.196-5.197h13.032a5.192 5.192 0 0 1 5.197 5.197 5.192 5.192 0 0 1-5.197 5.197H31.535z"/></g><defs><clipPath id="a"><path fill="#fff" d="M0 0h50v50H0z"/></clipPath></defs></svg>