<svg xmlns="http://www.w3.org/2000/svg" width="370" height="90" fill="none"><path fill="#000" fill-rule="evenodd" d="M40.787 90h-.132L0 49.345v-8.226l48.467 48.467a68.49 68.49 0 0 1-7.68.414ZM0 57.57 32.43 90h-8.226L0 65.796v-8.225Zm0 16.452L15.978 90H3.635A3.635 3.635 0 0 1 0 86.365V74.022ZM0 3.635v29.258l55.433 55.433c3.162-.87 5.953-2.225 8.373-4.066 2.564-1.913 4.701-4.274 6.411-7.082 2.687-4.234 4.03-9.016 4.03-14.349 0-5.17-1.18-9.566-3.541-13.189-2.32-3.622-5.78-6.268-10.38-7.937 3.012-1.547 5.291-3.257 6.838-5.13 2.768-3.337 4.152-7.753 4.152-13.249 0-5.332-1.384-9.912-4.152-13.738C62.564 3.358 54.75.163 43.718 0H3.635A3.635 3.635 0 0 0 0 3.635Zm115.763 11.2V79.72h11.279v-7.667h.665c.613 1.183 1.468 2.44 2.567 3.77 1.119 1.31 2.598 2.43 4.435 3.359 1.838.93 4.151 1.394 6.939 1.394 3.823 0 7.245-.982 10.265-2.947 3.021-1.964 5.408-4.816 7.161-8.554 1.753-3.739 2.629-8.28 2.629-13.624 0-5.407-.897-9.97-2.693-13.687-1.774-3.739-4.182-6.559-7.223-8.46-3.021-1.922-6.411-2.883-10.171-2.883-2.851 0-5.196.486-7.033 1.458-1.838.95-3.295 2.101-4.373 3.453-1.077 1.33-1.911 2.588-2.503 3.77h-.475V14.834h-11.469Zm12.578 48.823c-.887-2.366-1.331-5.122-1.331-8.27 0-3.147.433-5.882 1.299-8.205.888-2.324 2.187-4.13 3.897-5.418 1.711-1.289 3.792-1.933 6.242-1.933 2.556 0 4.689.666 6.4 1.996 1.711 1.33 2.999 3.169 3.865 5.513.866 2.345 1.299 5.027 1.299 8.048 0 3.041-.443 5.755-1.33 8.142-.866 2.366-2.155 4.235-3.866 5.608-1.711 1.352-3.833 2.028-6.368 2.028-2.429 0-4.499-.655-6.21-1.965-1.69-1.33-2.989-3.178-3.897-5.544Zm50.121 16.063V14.834h-11.469v64.887h11.469Zm21.337.983c-3.084 0-5.861-.55-8.332-1.648-2.451-1.12-4.394-2.767-5.83-4.943-1.415-2.175-2.123-4.858-2.123-8.047 0-2.746.507-5.017 1.521-6.812a11.77 11.77 0 0 1 4.15-4.309c1.754-1.077 3.728-1.89 5.925-2.44 2.218-.57 4.51-.982 6.875-1.235 2.852-.296 5.165-.56 6.939-.792 1.774-.254 3.063-.634 3.865-1.14.824-.529 1.236-1.342 1.236-2.44v-.19c0-2.387-.708-4.236-2.123-5.545-1.415-1.31-3.453-1.964-6.115-1.964-2.809 0-5.037.612-6.685 1.837-1.626 1.225-2.724 2.672-3.295 4.34l-10.709-1.52c.845-2.957 2.239-5.428 4.182-7.414 1.944-2.007 4.32-3.506 7.129-4.499 2.809-1.014 5.914-1.52 9.315-1.52 2.345 0 4.679.274 7.002.823 2.323.55 4.446 1.457 6.368 2.725 1.922 1.246 3.464 2.946 4.626 5.1 1.183 2.155 1.774 4.848 1.774 8.08v32.57h-11.025v-6.685h-.381c-.697 1.352-1.679 2.62-2.946 3.802-1.246 1.162-2.82 2.102-4.721 2.82-1.88.697-4.087 1.046-6.622 1.046Zm2.979-8.428c2.302 0 4.298-.454 5.988-1.363 1.689-.929 2.988-2.154 3.897-3.675a9.365 9.365 0 0 0 1.394-4.974v-5.735c-.359.296-.972.57-1.838.824a26.1 26.1 0 0 1-2.851.665c-1.056.19-2.102.36-3.137.507-1.035.148-1.933.275-2.693.38-1.711.233-3.242.613-4.594 1.141-1.352.528-2.419 1.267-3.2 2.218-.782.93-1.172 2.133-1.172 3.612 0 2.112.771 3.707 2.312 4.784 1.542 1.077 3.507 1.616 5.894 1.616Zm38.501 5.196c3.485 2.133 7.657 3.2 12.515 3.2 4.076 0 7.625-.74 10.645-2.218 3.021-1.5 5.408-3.57 7.161-6.21 1.753-2.661 2.767-5.713 3.041-9.156h-10.962c-.338 1.753-.961 3.242-1.869 4.467a9.12 9.12 0 0 1-3.391 2.82c-1.33.633-2.84.95-4.53.95-2.387 0-4.468-.633-6.242-1.9-1.753-1.29-3.115-3.116-4.087-5.482-.972-2.387-1.457-5.238-1.457-8.554 0-3.274.485-6.084 1.457-8.428.993-2.345 2.376-4.14 4.151-5.386 1.774-1.268 3.833-1.901 6.178-1.901 2.767 0 4.974.792 6.622 2.376 1.668 1.563 2.724 3.517 3.168 5.861h10.962c-.253-3.506-1.288-6.569-3.105-9.188-1.816-2.64-4.256-4.678-7.319-6.115-3.041-1.457-6.537-2.186-10.487-2.186-4.752 0-8.871 1.067-12.356 3.2-3.464 2.112-6.147 5.07-8.048 8.872-1.901 3.78-2.851 8.142-2.851 13.085 0 4.921.929 9.272 2.788 13.053 1.88 3.76 4.552 6.706 8.016 8.84Zm49.788 2.25v-16.36l4.173-4.473 14.901 20.831h13.718l-19.975-27.659 18.867-21.006h-13.402l-17.49 19.549h-.792v-35.77h-11.469V79.72h11.469Zm51.563-20.785v16.95h9.949v-16.95h16.95V48.99h-16.95V32.04h-9.949v16.95h-16.95v9.948h16.95Z" clip-rule="evenodd"/></svg>