<svg xmlns="http://www.w3.org/2000/svg" width="377" height="190" fill="none"><path fill="#000" d="M50.782 56.57c3.2 1.458 6.221 4.5 7.845 9.244 4.37 12.774 18.34 21.478 30.445 14.863 4.796-2.62 13.071.212 16.189 9.326 4.371 12.773 18.34 21.477 30.446 14.863 1.236-.676 2.703-.989 4.254-.926v9.088c-4.657-1.474-9.729-1.252-14.51 1.361-4.796 2.621-13.071-.212-16.189-9.325-4.372-12.774-18.34-21.478-30.446-14.863-4.796 2.62-13.07-.213-16.189-9.326-2.123-6.202-6.508-11.446-11.845-14.441V56.57Z"/><path fill="#000" d="M59.303 50.178c3.931 3.075 7.084 7.429 8.785 12.398 3.119 9.113 11.393 11.946 16.189 9.326 12.105-6.615 26.074 2.09 30.445 14.863 3.119 9.113 11.393 11.946 16.19 9.325 2.96-1.618 6.033-2.32 9.049-2.269V50.178H59.303Zm-8.521 29.266v9.633a27.079 27.079 0 0 1 6.206 10.083c3.119 9.113 11.393 11.946 16.19 9.326 12.105-6.615 26.074 2.089 30.445 14.863 3.118 9.113 11.393 11.946 16.189 9.325 6.806-3.719 14.201-2.595 20.149 1.371v-10.068c-3.327-2.042-7.056-2.266-9.715-.813-12.106 6.615-26.075-2.089-30.446-14.863-3.118-9.113-11.393-11.946-16.189-9.325-12.105 6.615-26.074-2.09-30.445-14.863-.616-1.8-1.433-3.354-2.384-4.67Z"/><path fill="#000" d="M103.434 139.357c-4.157-3.091-7.502-7.597-9.272-12.77-3.119-9.113-11.393-11.947-16.19-9.326-9.91 5.416-21.07.563-27.19-8.384v30.48h52.652Z"/><path fill="#000" fill-rule="evenodd" d="M178.073 69.178c4.56 0 8.543.668 11.95 2.004 3.409 1.335 6.241 3.177 8.498 5.525a22.242 22.242 0 0 1 5.041 7.944 25.02 25.02 0 0 1 1.728 9.188v1.52c0 3.039-.576 6.032-1.728 8.98-1.104 2.947-2.786 5.618-5.041 8.013-2.257 2.394-5.089 4.306-8.498 5.733-3.407 1.428-7.39 2.142-11.95 2.142h-18.236V69.178h18.236Zm.622 41.93h-9.049V78.296h9.049c2.625 0 4.951.369 6.977 1.106 2.072.737 3.822 1.819 5.25 3.246 1.428 1.428 2.51 3.155 3.246 5.181.783 1.98 1.175 4.237 1.175 6.77 0 2.44-.392 4.674-1.175 6.7a14.731 14.731 0 0 1-3.246 5.181c-1.428 1.474-3.178 2.625-5.25 3.454-2.026.783-4.352 1.174-6.977 1.174Z" clip-rule="evenodd"/><path fill="#000" d="M212.554 116.842c2.394 2.855 5.757 4.283 10.085 4.283h.415c2.901 0 5.319-.645 7.253-1.935 1.934-1.289 3.384-3.2 4.351-5.733.268-.7.498-1.448.692-2.243v8.736h7.598V82.372h-9.602v22.174c0 2.441-.713 4.375-2.141 5.803-1.382 1.427-3.178 2.141-5.389 2.141-2.21 0-3.96-.668-5.25-2.004-1.289-1.381-1.933-3.223-1.933-5.526V82.372h-9.602v21.759c0 5.619 1.174 9.855 3.523 12.711Zm37.969 3.108V82.44h7.599v9.246c.223-.963.499-1.857.829-2.683 1.014-2.578 2.51-4.513 4.49-5.802 2.027-1.29 4.537-1.934 7.53-1.934h.414c4.468 0 7.852 1.45 10.155 4.352 2.302 2.855 3.453 7.138 3.453 12.848v21.483h-9.601V97.638c0-2.303-.668-4.167-2.003-5.595-1.29-1.428-3.086-2.142-5.389-2.142-2.349 0-4.26.737-5.733 2.21-1.428 1.429-2.141 3.363-2.141 5.804v22.035h-9.603Z"/><path fill="#000" fill-rule="evenodd" d="M300.151 119.605c2.442 1.105 5.274 1.658 8.497 1.658 3.085 0 5.826-.53 8.22-1.589 2.442-1.059 4.444-2.556 6.01-4.49 1.566-1.934 2.625-4.191 3.178-6.77h-8.842c-.415 1.382-1.359 2.556-2.832 3.523-1.474.921-3.385 1.382-5.734 1.382-2.348 0-4.283-.507-5.802-1.52-1.52-1.059-2.649-2.487-3.385-4.283-.49-1.224-.817-2.559-.982-4.006h28.199v-3.454c0-3.316-.692-6.401-2.073-9.257-1.381-2.9-3.454-5.226-6.217-6.976-2.717-1.796-6.102-2.695-10.155-2.695-3.085 0-5.801.553-8.15 1.659-2.349 1.059-4.329 2.51-5.941 4.351-1.566 1.797-2.763 3.869-3.592 6.218a22.16 22.16 0 0 0-1.174 7.184v1.312c0 2.395.391 4.743 1.174 7.046a20.828 20.828 0 0 0 3.592 6.286c1.612 1.842 3.615 3.316 6.009 4.421Zm-1.507-21.967c.184-1.055.457-2.022.817-2.901.424-.997.948-1.865 1.574-2.606a8.346 8.346 0 0 1 1.811-1.608c1.473-.967 3.269-1.45 5.387-1.45 2.119 0 3.869.46 5.25 1.381 1.428.921 2.488 2.234 3.178 3.938a13.264 13.264 0 0 1 .63 2.056c.085.383.156.78.214 1.19h-18.861Z" clip-rule="evenodd"/></svg>