<svg xmlns="http://www.w3.org/2000/svg" width="307" height="90" fill="none"><path fill="#000" d="M113.69 70.522c-3.731 0-6.746-.282-9.045-.846-2.299-.564-3.969-1.41-5.01-2.537-1.041-1.085-1.562-2.408-1.562-3.97 0-1.951.76-3.535 2.278-4.75 1.561-1.258 3.882-2.082 6.962-2.472v-.976c-2.343 0-4.121-.282-5.336-.846-1.214-.564-1.822-1.475-1.822-2.733 0-1.171.586-2.212 1.757-3.123 1.215-.911 3.189-1.605 5.921-2.082v-1.042c-2.602-.26-4.641-1.17-6.116-2.733-1.432-1.561-2.147-3.578-2.147-6.05 0-2.213.585-4.144 1.757-5.792 1.214-1.692 2.949-3.015 5.205-3.97 2.299-.954 5.075-1.43 8.329-1.43h16.918v6.571l-10.932-1.561v1.106c2.863.477 4.924 1.301 6.182 2.472 1.301 1.128 1.952 2.603 1.952 4.425 0 1.735-.564 3.297-1.692 4.685-1.084 1.345-2.668 2.408-4.75 3.188-2.082.738-4.642 1.107-7.678 1.107a33.35 33.35 0 0 1-2.082-.066 131.14 131.14 0 0 1-2.798-.39c-1.041.607-1.844 1.15-2.408 1.627-.52.477-.781.932-.781 1.366 0 .304.196.564.586.781.39.174.889.304 1.497.39.607.087 1.236.13 1.887.13h9.5c.824 0 1.908.066 3.253.196 1.388.13 2.755.477 4.099 1.04 1.389.521 2.538 1.39 3.449 2.604.954 1.17 1.432 2.863 1.432 5.075 0 2.43-.694 4.425-2.083 5.986-1.388 1.605-3.47 2.777-6.246 3.514-2.776.738-6.269 1.106-10.476 1.106Zm.39-6.832c2.863 0 5.097-.152 6.702-.455 1.649-.304 2.798-.76 3.449-1.367.651-.607.976-1.388.976-2.342 0-.868-.217-1.54-.651-2.018-.434-.52-.998-.889-1.692-1.106a7.907 7.907 0 0 0-2.017-.39 28.958 28.958 0 0 0-1.757-.065h-8.263c-1.952.434-3.319 1.041-4.1 1.822-.781.737-1.171 1.583-1.171 2.538 0 .954.347 1.67 1.041 2.147.694.477 1.67.802 2.928.976 1.302.173 2.82.26 4.555.26Zm.521-21.147c2.125 0 3.752-.52 4.88-1.562 1.171-1.084 1.757-2.473 1.757-4.164 0-1.822-.586-3.319-1.757-4.49-1.171-1.171-2.82-1.757-4.945-1.757-2.169 0-3.861.586-5.076 1.757-1.171 1.128-1.757 2.58-1.757 4.36 0 1.127.261 2.147.781 3.058.564.867 1.345 1.561 2.343 2.082 1.041.477 2.299.716 3.774.716Zm34.714 17.698c-2.82 0-5.292-.39-7.418-1.17-2.126-.825-3.904-1.996-5.336-3.514-1.431-1.519-2.516-3.34-3.253-5.466-.737-2.126-1.106-4.49-1.106-7.093 0-2.603.347-5.032 1.041-7.288.737-2.255 1.8-4.207 3.188-5.856 1.388-1.692 3.102-2.993 5.141-3.904 2.082-.954 4.446-1.431 7.092-1.431 2.56 0 4.815.433 6.767 1.3a12.133 12.133 0 0 1 4.881 3.71c1.301 1.648 2.234 3.665 2.798 6.051.607 2.343.802 5.01.585 8.004l-26.223.325v-4.815l20.888-.26-2.278 2.733c.217-2.343.022-4.273-.586-5.791-.563-1.562-1.431-2.733-2.602-3.514-1.172-.781-2.56-1.172-4.165-1.172-1.822 0-3.383.478-4.685 1.432-1.258.911-2.234 2.234-2.928 3.97-.65 1.734-.976 3.817-.976 6.246 0 3.817.803 6.659 2.408 8.524 1.605 1.865 3.882 2.798 6.832 2.798 1.301 0 2.386-.174 3.253-.52.911-.391 1.649-.868 2.213-1.432a6.152 6.152 0 0 0 1.366-2.017 7.19 7.19 0 0 0 .651-2.278l7.353 1.171a14.23 14.23 0 0 1-1.367 4.49c-.694 1.345-1.648 2.538-2.863 3.579-1.214.998-2.711 1.779-4.49 2.343-1.735.563-3.795.845-6.181.845Zm17.606-.846V25.43h7.027l-.325 11.972h.976c.477-3.123 1.236-5.617 2.277-7.483 1.085-1.908 2.429-3.275 4.035-4.1 1.605-.867 3.47-1.3 5.595-1.3 1.953 0 3.601.347 4.946 1.04a8.866 8.866 0 0 1 3.318 2.734 12.95 12.95 0 0 1 2.017 3.839 19.287 19.287 0 0 1 1.041 4.49c.174 1.561.261 3.08.261 4.554v18.22h-8.199V42.151c0-.91-.065-1.952-.195-3.123a13.7 13.7 0 0 0-.716-3.514c-.39-1.128-.998-2.06-1.822-2.798-.824-.737-1.995-1.106-3.514-1.106-1.822 0-3.361.586-4.619 1.757-1.215 1.128-2.169 2.755-2.864 4.88-.65 2.082-.976 4.533-.976 7.353v13.794h-8.263Zm50.869.846c-2.82 0-5.292-.39-7.418-1.17-2.126-.825-3.904-1.996-5.336-3.514-1.431-1.519-2.516-3.34-3.253-5.466-.738-2.126-1.106-4.49-1.106-7.093 0-2.603.347-5.032 1.041-7.288.737-2.255 1.8-4.207 3.188-5.856 1.388-1.692 3.102-2.993 5.141-3.904 2.082-.954 4.446-1.431 7.092-1.431 2.56 0 4.815.433 6.767 1.3a12.133 12.133 0 0 1 4.881 3.71c1.301 1.648 2.234 3.665 2.798 6.051.607 2.343.802 5.01.585 8.004l-26.223.325v-4.815l20.887-.26-2.277 2.733c.217-2.343.022-4.273-.586-5.791-.563-1.562-1.431-2.733-2.602-3.514-1.172-.781-2.56-1.172-4.165-1.172-1.822 0-3.383.478-4.685 1.432-1.258.911-2.234 2.234-2.928 3.97-.65 1.734-.976 3.817-.976 6.246 0 3.817.803 6.659 2.408 8.524 1.605 1.865 3.882 2.798 6.832 2.798 1.301 0 2.386-.174 3.253-.52.911-.391 1.649-.868 2.213-1.432a6.152 6.152 0 0 0 1.366-2.017 7.19 7.19 0 0 0 .651-2.278l7.353 1.171a14.23 14.23 0 0 1-1.367 4.49c-.694 1.345-1.648 2.538-2.863 3.579-1.214.998-2.711 1.779-4.49 2.343-1.735.563-3.795.845-6.181.845Zm24.918-.846L231.191 25.43h8.979l7.808 27.263h.781l7.874-27.263h8.589l-11.518 33.965h-10.996Zm30.804.846c-1.865 0-3.557-.325-5.075-.976a8.164 8.164 0 0 1-3.514-3.123c-.867-1.431-1.301-3.188-1.301-5.27 0-2.256.477-4.056 1.431-5.401a9.629 9.629 0 0 1 3.709-3.123 19.493 19.493 0 0 1 5.011-1.692 83.38 83.38 0 0 1 5.205-.976c1.822-.26 3.232-.5 4.23-.716.997-.26 1.691-.607 2.082-1.041.434-.434.65-1.041.65-1.822 0-.998-.238-1.865-.715-2.603-.434-.78-1.106-1.388-2.017-1.822-.868-.434-1.952-.65-3.254-.65a9.71 9.71 0 0 0-3.514.65c-1.127.434-2.103 1.128-2.928 2.082-.781.955-1.279 2.213-1.496 3.774l-7.353-1.691c.304-1.996.911-3.688 1.822-5.076.911-1.431 2.039-2.603 3.383-3.514a14.409 14.409 0 0 1 4.62-2.082c1.736-.434 3.579-.65 5.531-.65 2.516 0 4.663.347 6.442 1.04 1.822.651 3.275 1.627 4.36 2.929 1.128 1.301 1.93 2.863 2.407 4.685.521 1.778.781 3.795.781 6.051v6.247l.13 4.62.13 4.685c.087 1.561.174 3.101.261 4.62h-7.288a726.309 726.309 0 0 1-.26-4.36c-.044-1.518-.087-3.08-.131-4.685h-.845a14.493 14.493 0 0 1-2.408 5.01c-1.128 1.475-2.538 2.668-4.229 3.58-1.692.867-3.644 1.3-5.857 1.3Zm3.124-6.116c.911 0 1.843-.174 2.798-.52a9.64 9.64 0 0 0 2.732-1.562 9.685 9.685 0 0 0 2.343-2.603c.694-1.084 1.215-2.343 1.562-3.774l-.065-4.295 1.626.066c-.65.65-1.496 1.149-2.537 1.496a28.61 28.61 0 0 1-3.319.78c-1.171.174-2.364.37-3.579.587-1.171.216-2.255.52-3.253.91-.998.39-1.8.933-2.408 1.627-.564.694-.846 1.627-.846 2.798 0 1.388.456 2.495 1.367 3.319.911.78 2.104 1.17 3.579 1.17Zm24.633 6.051c-1.779 0-3.123-.39-4.034-1.17-.911-.782-1.367-1.975-1.367-3.58 0-1.692.456-2.928 1.367-3.709.911-.78 2.255-1.17 4.034-1.17 1.822 0 3.188.39 4.099 1.17.955.781 1.432 2.017 1.432 3.71 0 3.166-1.844 4.75-5.531 4.75Z"/><path fill="#000" fill-rule="evenodd" d="M42.995.382C19.297 3.592.048 26.17 0 50.81c-.048 24.64 19.125 42.018 42.82 38.808 23.693-3.21 42.957-25.789 42.995-50.428.037-24.64-19.126-42.018-42.82-38.808ZM12.857 49.049c-.034 17.173 13.372 29.285 29.938 27.048C59.361 73.86 72.83 58.123 72.857 40.95l-60 8.099Z" clip-rule="evenodd"/></svg>