<svg xmlns="http://www.w3.org/2000/svg" width="638" height="90" fill="none"><path fill="#000" d="M233.563 72.532h-15.414V45.609c0-4.247-.856-7.261-2.569-9.042-1.713-1.782-4.795-2.672-9.248-2.672-4.658 0-7.844.993-9.557 2.98-1.644 1.986-2.466 5.206-2.466 9.66h-1.952l-1.233-9.66h2.98c.411-2.946 1.301-5.686 2.671-8.22 1.439-2.536 3.528-4.59 6.269-6.166 2.808-1.644 6.405-2.466 10.789-2.466 4.453 0 8.118.89 10.995 2.671 2.946 1.781 5.138 4.213 6.577 7.296 1.438 3.083 2.158 6.577 2.158 10.481v32.06Zm-78.507 0h-15.414V21.05h14.283v16.03l1.131.514v34.938Zm39.253 0h-15.413V45.609c0-4.247-.857-7.261-2.569-9.042-1.713-1.782-4.796-2.672-9.249-2.672-4.726 0-7.912.993-9.556 2.98-1.644 1.986-2.466 5.206-2.466 9.66h-1.953l-1.13-9.866h2.774c.48-2.877 1.405-5.549 2.775-8.015 1.37-2.535 3.391-4.59 6.063-6.165 2.671-1.644 6.165-2.466 10.481-2.466 4.453 0 8.084.924 10.892 2.774 2.877 1.85 5.001 4.316 6.371 7.399 1.37 3.082 2.055 6.508 2.055 10.275h.925v32.06Zm74.421 1.028c-5.686 0-10.721-.96-15.106-2.878-4.384-1.918-7.775-4.864-10.173-8.837-2.397-3.973-3.596-8.974-3.596-15.003 0-5.48 1.199-10.207 3.596-14.18 2.398-4.042 5.721-7.159 9.968-9.351 4.316-2.192 9.317-3.288 15.003-3.288 5.617 0 10.515.959 14.694 2.877 4.247 1.918 7.536 4.76 9.865 8.529 2.329 3.699 3.493 8.22 3.493 13.564 0 .89-.034 1.712-.102 2.466a40.767 40.767 0 0 1-.309 2.466h-46.241v-8.118h35.349l-3.494 5.035V43.04c0-3.904-1.061-6.713-3.185-8.426-2.124-1.712-5.583-2.569-10.379-2.569-5.206 0-8.837 1.028-10.892 3.083-2.055 1.987-3.083 5.172-3.083 9.556v3.905c0 4.385 1.028 7.604 3.083 9.66 2.055 1.986 5.72 2.98 10.995 2.98 4.521 0 7.707-.583 9.557-1.748 1.849-1.164 2.774-2.842 2.774-5.035V53.42h15.414v1.13c0 3.7-1.131 6.988-3.391 9.865-2.261 2.877-5.446 5.138-9.557 6.782-4.042 1.576-8.803 2.363-14.283 2.363Zm128.201-1.028h-15.413V45.609c0-4.247-.857-7.261-2.569-9.042-1.713-1.782-4.796-2.672-9.248-2.672-4.659 0-7.844.993-9.557 2.98-1.644 1.986-2.466 5.206-2.466 9.66h-1.952l-1.234-9.66h2.98c.411-2.946 1.302-5.686 2.672-8.22 1.439-2.536 3.528-4.59 6.268-6.166 2.809-1.644 6.406-2.466 10.79-2.466 4.453 0 8.118.89 10.995 2.671 2.946 1.781 5.138 4.213 6.576 7.296 1.439 3.083 2.158 6.577 2.158 10.481v32.06Zm-78.507 0h-15.413V21.05h14.283v16.03l1.13.514v34.938Zm39.254 0h-15.414V45.609c0-4.247-.856-7.261-2.569-9.042-1.712-1.782-4.795-2.672-9.248-2.672-4.727 0-7.912.993-9.556 2.98-1.644 1.986-2.467 5.206-2.467 9.66h-1.952l-1.13-9.866h2.774c.48-2.877 1.405-5.549 2.775-8.015 1.37-2.535 3.391-4.59 6.062-6.165 2.672-1.644 6.166-2.466 10.482-2.466 4.452 0 8.083.924 10.892 2.774 2.877 1.85 5.001 4.316 6.371 7.399 1.37 3.082 2.055 6.508 2.055 10.275h.925v32.06Zm83.463 1.028c-5.96 0-10.618-1.337-13.975-4.008-3.288-2.74-5.377-6.371-6.268-10.893h-2.672V47.563h1.953c0 2.877.582 5.206 1.747 6.987 1.164 1.781 2.843 3.049 5.035 3.802 2.26.754 5.001 1.13 8.22 1.13 3.357 0 6.097-.41 8.221-1.233 2.124-.822 3.699-2.157 4.727-4.007 1.027-1.85 1.541-4.316 1.541-7.399 0-3.22-.514-5.72-1.541-7.501-1.028-1.85-2.603-3.151-4.727-3.905-2.124-.822-4.83-1.233-8.118-1.233-5.001 0-8.769.96-11.303 2.877-2.535 1.85-3.802 5.07-3.802 9.66h-1.953l-1.13-11.612h2.98c.891-4.932 3.014-8.666 6.371-11.2 3.425-2.604 8.152-3.905 14.181-3.905 5.274 0 9.727 1.096 13.358 3.288 3.699 2.192 6.508 5.309 8.426 9.35 1.918 3.974 2.877 8.7 2.877 14.181 0 5.412-.959 10.14-2.877 14.18-1.849 3.974-4.59 7.057-8.22 9.25-3.563 2.191-7.913 3.287-13.051 3.287ZM420.179 90h-15.414V21.05h14.283v15.311l1.131 1.336V90Zm109.269-17.468h-15.414V45.609c0-4.316-1.027-7.33-3.082-9.042-1.987-1.782-5.412-2.672-10.276-2.672-3.425 0-6.131.48-8.118 1.438-1.987.96-3.391 2.398-4.213 4.316-.822 1.85-1.233 4.213-1.233 7.09h-2.261l.206-9.967h2.877a23.629 23.629 0 0 1 3.185-8.22c1.576-2.535 3.802-4.59 6.68-6.166 2.945-1.576 6.61-2.363 10.995-2.363 4.589 0 8.426.924 11.508 2.774 3.083 1.85 5.378 4.35 6.885 7.501 1.507 3.152 2.261 6.714 2.261 10.687v31.547Zm-42.336 0h-15.414V3.684h15.414v68.848Zm65.528 0h-15.414V21.05h15.414v51.482Zm0-56.722h-15.414V3.684h15.414V15.81Zm34.066 57.75c-8.632 0-15.277-1.61-19.935-4.83-4.659-3.288-6.988-7.913-6.988-13.873v-.308h15.414v.925c0 2.33.822 3.905 2.466 4.727 1.713.753 4.761 1.13 9.145 1.13 4.111 0 6.817-.342 8.118-1.027 1.37-.754 2.055-1.884 2.055-3.391 0-1.439-.513-2.432-1.541-2.98-1.028-.617-3.048-1.13-6.063-1.542l-14.488-1.747c-5.138-.548-9.112-1.986-11.92-4.316-2.741-2.329-4.111-5.685-4.111-10.07 0-3.014.891-5.72 2.672-8.118 1.781-2.466 4.521-4.418 8.221-5.857 3.767-1.507 8.597-2.26 14.489-2.26 5.617 0 10.378.719 14.283 2.157 3.973 1.37 6.987 3.46 9.042 6.269 2.056 2.808 3.083 6.302 3.083 10.481v.308h-15.413v-.616c0-1.439-.309-2.603-.925-3.494-.548-.96-1.679-1.678-3.391-2.158-1.644-.48-4.042-.72-7.193-.72-3.837 0-6.406.377-7.707 1.131-1.302.685-1.953 1.85-1.953 3.494 0 1.301.514 2.295 1.542 2.98 1.096.616 3.322 1.164 6.679 1.644l10.995 1.336c6.851.753 11.715 2.329 14.592 4.727 2.877 2.397 4.316 5.72 4.316 9.967 0 3.22-1.028 6.029-3.083 8.426-2.055 2.398-4.967 4.282-8.735 5.652-3.767 1.302-8.323 1.952-13.666 1.952Zm50.508-1.028h-19.833V54.549h19.833v17.983ZM48.606 87.945H4.32A4.32 4.32 0 0 1 0 83.625V4.328c0-3.98 4.929-5.843 7.562-2.856l44.285 50.24a4.32 4.32 0 0 1 1.08 2.857v29.055a4.32 4.32 0 0 1-4.321 4.32Zm16.201 0h44.285a4.321 4.321 0 0 0 4.321-4.32V4.328c0-3.981-4.929-5.844-7.562-2.857l-44.285 50.24a4.32 4.32 0 0 0-1.08 2.857v29.055a4.32 4.32 0 0 0 4.321 4.32Z"/></svg>