<svg xmlns="http://www.w3.org/2000/svg" width="346" height="90" fill="none"><path fill="#000" d="M147.85 70.37h-11.136L118.09 42.173V70.37h-11.135V24.656h11.135l18.624 28.327V24.656h11.136V70.37Zm5.857-18.234c0-3.733.695-7.01 2.084-9.833 1.433-2.822 3.365-4.992 5.796-6.512 2.431-1.52 5.144-2.279 8.14-2.279 2.561 0 4.797.521 6.707 1.563 1.954 1.042 3.451 2.41 4.493 4.102v-5.144h11.136V70.37h-11.136v-5.145c-1.085 1.693-2.604 3.061-4.558 4.103-1.91 1.042-4.146 1.563-6.707 1.563-2.952 0-5.644-.76-8.075-2.28-2.431-1.562-4.363-3.755-5.796-6.577-1.389-2.865-2.084-6.164-2.084-9.898Zm27.22.065c0-2.778-.781-4.97-2.344-6.577-1.519-1.606-3.386-2.41-5.6-2.41-2.214 0-4.103.804-5.666 2.41-1.519 1.563-2.279 3.734-2.279 6.512 0 2.779.76 4.993 2.279 6.642 1.563 1.607 3.452 2.41 5.666 2.41 2.214 0 4.081-.803 5.6-2.41 1.563-1.606 2.344-3.798 2.344-6.577Zm24.792-21.945c-1.953 0-3.56-.564-4.819-1.693-1.215-1.172-1.823-2.605-1.823-4.298 0-1.736.608-3.169 1.823-4.298 1.259-1.172 2.866-1.758 4.819-1.758 1.91 0 3.473.586 4.689 1.758 1.259 1.129 1.888 2.562 1.888 4.298 0 1.693-.629 3.126-1.888 4.298-1.216 1.129-2.779 1.693-4.689 1.693Zm5.535 3.777V70.37h-11.135V34.033h11.135Zm19.205 6.057c1.303-1.998 2.931-3.56 4.884-4.69 1.954-1.172 4.125-1.758 6.512-1.758V45.43h-3.06c-2.779 0-4.862.608-6.252 1.823-1.389 1.172-2.084 3.256-2.084 6.252V70.37h-11.135V34.033h11.135v6.056Zm33.259 30.8c-3.56 0-6.772-.759-9.637-2.278-2.822-1.52-5.058-3.69-6.708-6.512-1.606-2.822-2.409-6.122-2.409-9.899 0-3.733.825-7.01 2.474-9.833 1.65-2.865 3.908-5.057 6.773-6.577 2.865-1.52 6.078-2.279 9.638-2.279 3.559 0 6.772.76 9.637 2.28 2.865 1.519 5.123 3.711 6.773 6.576 1.649 2.822 2.474 6.1 2.474 9.833 0 3.734-.846 7.033-2.539 9.899-1.65 2.821-3.929 4.992-6.838 6.512-2.865 1.519-6.078 2.279-9.638 2.279Zm0-9.637c2.128 0 3.929-.781 5.405-2.344 1.52-1.563 2.279-3.799 2.279-6.708 0-2.908-.738-5.144-2.214-6.707-1.432-1.563-3.212-2.344-5.339-2.344-2.171 0-3.973.781-5.405 2.344-1.433 1.52-2.149 3.755-2.149 6.707 0 2.91.694 5.145 2.083 6.708 1.433 1.563 3.213 2.344 5.34 2.344Zm36.058-22.075c1.042-1.694 2.54-3.061 4.493-4.103 1.954-1.042 4.19-1.563 6.708-1.563 2.995 0 5.709.76 8.14 2.28 2.431 1.519 4.341 3.69 5.73 6.511 1.433 2.822 2.149 6.1 2.149 9.833 0 3.734-.716 7.033-2.149 9.898-1.389 2.822-3.299 5.015-5.73 6.578-2.431 1.519-5.145 2.279-8.14 2.279-2.562 0-4.797-.5-6.708-1.498-1.91-1.042-3.407-2.41-4.493-4.103v5.08h-11.135V22.18h11.135v16.997Zm15.889 12.958c0-2.778-.781-4.949-2.344-6.512-1.519-1.606-3.408-2.41-5.665-2.41-2.214 0-4.103.804-5.666 2.41-1.519 1.607-2.279 3.799-2.279 6.577 0 2.779.76 4.971 2.279 6.578 1.563 1.606 3.452 2.409 5.666 2.409 2.214 0 4.102-.803 5.665-2.41 1.563-1.65 2.344-3.863 2.344-6.642Zm22.773-21.88c-1.953 0-3.559-.564-4.818-1.693-1.216-1.172-1.824-2.605-1.824-4.298 0-1.736.608-3.169 1.824-4.298 1.259-1.172 2.865-1.758 4.818-1.758 1.911 0 3.473.586 4.689 1.758 1.259 1.129 1.888 2.562 1.888 4.298 0 1.693-.629 3.126-1.888 4.298-1.216 1.129-2.778 1.693-4.689 1.693Zm5.536 3.777V70.37h-11.136V34.033h11.136Z"/><path fill="#000" fill-rule="evenodd" d="M88.796 90 .455 37.948.77 2.319l88.341 52.055L88.796 90Z" clip-rule="evenodd"/><path fill="#000" d="M51.056.446a38.479 38.479 0 0 0 38.137 38.82L89.534.788 51.056.446ZM38.481 89.248A38.478 38.478 0 0 0 .345 50.428L.003 88.907l38.478.341Z"/></svg>