<svg xmlns="http://www.w3.org/2000/svg" width="502" height="214" fill="none"><path fill="#000" d="M181.451 71.797V58h69.418v13.797h-26.795v81.67h-15.55v-81.67h-27.073Zm111.939 69.127 3.888-.418.277 11.289c-10.551 2.137-19.9 3.205-28.045 3.205-10.274 0-17.678-2.834-22.213-8.501-4.443-5.668-6.665-14.727-6.665-27.177 0-24.715 10.043-37.072 30.128-37.072 19.437 0 29.156 10.638 29.156 31.915l-.972 10.871h-43.04c.093 5.76 1.342 9.988 3.749 12.682 2.406 2.695 6.896 4.042 13.467 4.042 6.572 0 13.328-.279 20.27-.836Zm-8.33-27.595c0-6.875-1.111-11.66-3.332-14.355-2.129-2.787-5.785-4.18-10.968-4.18s-8.978 1.44-11.385 4.32c-2.314 2.88-3.517 7.618-3.609 14.215h29.294Zm22.466 40.138V83.783h14.994v8.362c7.867-5.11 15.735-8.408 23.602-9.895v15.191c-7.96 1.58-14.763 3.624-20.409 6.132l-3.054 1.255v48.639h-15.133Zm43.223 0V83.783h14.995v8.362c7.867-5.11 15.734-8.408 23.602-9.895v15.191c-7.96 1.58-14.763 3.624-20.409 6.132l-3.055 1.255v48.639h-15.133Zm94.593-48.221v31.776c.093 2.044.602 3.577 1.528 4.599 1.018.929 2.545 1.533 4.581 1.811L451.035 155c-7.96 0-14.115-1.719-18.466-5.157-7.404 3.438-14.855 5.157-22.352 5.157-13.791 0-20.687-7.386-20.687-22.159 0-7.062 1.851-12.172 5.554-15.331 3.794-3.159 9.579-5.064 17.354-5.714l17.91-1.533v-5.017c0-3.717-.833-6.318-2.499-7.805-1.574-1.487-3.934-2.23-7.081-2.23-5.923 0-13.328.372-22.214 1.115l-4.442.279-.556-10.731c10.089-2.416 19.345-3.624 27.768-3.624 8.515 0 14.624 1.858 18.326 5.575 3.795 3.623 5.692 9.43 5.692 17.421Zm-31.099 17.281c-6.386.558-9.58 4.042-9.58 10.453s2.823 9.616 8.469 9.616c4.628 0 9.534-.743 14.717-2.23l2.499-.836v-18.536l-16.105 1.533Z"/><path fill="#000" fill-rule="evenodd" d="M139.451 50c12.081 0 22.161 8.57 24.492 19.962.333 1.627.508 3.312.508 5.038v64c0 13.807-11.193 25-25 25h-64a25 25 0 0 1-7.826-1.249C57.65 159.466 50.45 150.074 50.45 139V75c0-13.807 11.193-25 25-25h64Zm-10.14 8h10.14c8.285 0 15.186 5.927 16.694 13.772-4.811.545-10.311.04-16.119-2.449-5.146-2.205-8.56-6.292-10.715-11.323Zm-23.737 0h15.195c2.525 7.6 7.361 14.929 16.106 18.676 7.015 3.007 13.677 3.704 19.576 3.118v8.175c-8.009 2.535-15.99 3.561-22.376 1.692-3.172-.928-6.812-3.393-10.729-7.27-3.863-3.825-7.718-8.744-11.358-14.121A174.283 174.283 0 0 1 105.574 58Zm-9.188 0H85.8c.483 9.053-1.65 20.11-9.585 31.312-5.257 7.421-11.473 11.503-17.764 13.326v15.949c3.79-2.302 8.253-5.446 13.478-9.691 12.345-10.03 22.068-14.021 29.441-14.751 7.33-.726 12.541 1.817 14.836 5.03 2.41 3.374 3.772 7.895 4.285 12.663.519 4.826.203 10.209-1.015 15.551-2.419 10.62-8.562 21.674-19.628 27.633-.603.325-1.21.651-1.824.978h12.435c4.863-6.174 8.755-12.308 10.151-17.115 1.575-5.427 2.222-11.18 2.826-16.558l.001-.001v-.002c.217-1.931.429-3.815.676-5.618.429-3.124 1.021-6.434 2.292-8.821.673-1.263 1.742-2.669 3.462-3.481 1.811-.855 3.696-.75 5.349-.199 4.634 1.545 10.794 1.865 21.235-.751v-7.135c-8.052 2.268-16.831 3.3-24.624 1.02-5.028-1.472-9.801-4.998-14.109-9.264-4.362-4.318-8.544-9.693-12.354-15.32-3.259-4.814-6.293-9.883-8.978-14.755Zm60.065 53.682c-9.947 2.277-17.1 2.182-23.15.31-.447 1.047-.864 2.903-1.262 5.802-.198 1.44-.381 3.077-.58 4.847v.001c-.618 5.516-1.381 12.323-3.167 18.473-1.368 4.714-4.328 9.893-7.846 14.885h8.048c1.485-3.692 2.852-7.208 3.926-10.163 1.154-3.176 1.876-5.46 2.109-6.622.441-2.207 1.282-4.582 3.255-6.265 2.052-1.752 4.572-2.128 6.933-2.008 2.325.119 5.051.745 8.126 1.627 1.118.32 2.32.686 3.608 1.093v-21.98Zm-.26 30.297a171.391 171.391 0 0 0-5.554-1.72c-2.971-.853-4.964-1.258-6.326-1.327-.88-.045-1.236.064-1.338.109-.058.068-.342.455-.599 1.743-.368 1.838-1.299 4.658-2.435 7.785a294.18 294.18 0 0 1-2.833 7.431h2.345c8.373 0 15.332-6.053 16.74-14.021ZM80.763 156c5.239-2.702 10.527-5.456 15.292-8.022 8.434-4.541 13.541-13.236 15.621-22.366 1.033-4.533 1.279-9.026.861-12.918-.425-3.951-1.5-6.992-2.841-8.869-.204-.286-2.243-2.243-7.538-1.719-5.252.52-13.53 3.529-25.184 12.999-7.296 5.928-13.402 9.989-18.523 12.674v9.022c1.263-1.155 2.688-2.12 4.005-2.943 1.343-.839 2.805-1.664 4.242-2.47l.356-.2a159.78 159.78 0 0 0 3.999-2.291c2.894-1.734 5.497-3.545 7.498-5.652 3.465-3.648 8.466-8.001 13.168-10.973 2.32-1.467 4.825-2.764 7.189-3.359 2.218-.559 5.657-.786 8.054 1.954 2.281 2.607 3.226 6.517 1.565 11.592-1.578 4.821-5.541 10.907-13.201 18.823-7.952 8.216-15.903 12.332-22.607 13.644-.756.148-1.5.26-2.229.339a17 17 0 0 0 4.961.735h5.312ZM58.45 94.174c3.876-1.608 7.738-4.547 11.236-9.486 6.908-9.753 8.578-19.21 8.102-26.688H75.45c-9.389 0-17 7.611-17 17v19.174Zm84.514 44.871a.097.097 0 0 0-.026.015c.001.001.005-.001.012-.006l.005-.003.009-.006Zm-46.971-20.011c-4.029 2.546-8.528 6.442-11.643 9.721-2.748 2.893-6.082 5.145-9.188 7.005-1.427.854-2.858 1.656-4.184 2.4l-.368.206c-1.453.815-2.757 1.552-3.915 2.276-2.497 1.56-3.54 2.61-3.868 3.281-.094.193-.105.303-.076.471.041.24.214.793.899 1.706l.066.089.062.092c.004.005.094.13.38.305.296.181.753.385 1.404.545 1.306.322 3.208.415 5.62-.057 4.796-.938 11.345-4.072 18.394-11.356 7.34-7.584 10.325-12.628 11.347-15.747.608-1.858.483-2.864.289-3.378a5.259 5.259 0 0 0-.351.078c-1.155.291-2.823 1.07-4.868 2.363Zm5.649-2.479c-.002.003-.026.003-.066-.005.047-.001.068.003.066.005Z" clip-rule="evenodd"/></svg>