<svg style="width:100%;height:100%;" xmlns="http://www.w3.org/2000/svg"><defs><svg viewBox="0 0 124 27" id="svg10624854504"><path d="M 14.292 9.708 C 14.965 9.317 16.056 9.317 16.729 9.708 L 29.786 17.292 C 30.459 17.683 30.459 18.317 29.786 18.708 L 16.729 26.292 C 16.056 26.683 14.965 26.683 14.292 26.292 L 1.234 18.708 C 0.561 18.317 0.561 17.683 1.234 17.292 L 14.292 9.708 Z" fill="var(--token-bab5142a-9f6d-4043-b7bd-02888ac520b9, rgb(51, 51, 51))"></path><path d="M 14.276 5.424 C 14.949 5.033 16.04 5.033 16.713 5.424 L 29.771 13.008 C 30.444 13.399 30.444 14.033 29.771 14.424 L 16.713 22.008 C 16.04 22.399 14.949 22.399 14.276 22.008 L 1.219 14.424 C 0.546 14.033 0.546 13.399 1.219 13.008 L 14.276 5.424 Z" fill="var(--token-bab5142a-9f6d-4043-b7bd-02888ac520b9, rgb(51, 51, 51))"></path><path d="M 14.276 0.708 C 14.949 0.317 16.04 0.317 16.713 0.708 L 29.771 8.292 C 30.444 8.683 30.444 9.317 29.771 9.708 L 16.713 17.292 C 16.04 17.683 14.949 17.683 14.276 17.292 L 1.219 9.708 C 0.546 9.317 0.546 8.683 1.219 8.292 L 14.276 0.708 Z M 42.017 20.54 L 36.766 7.471 L 39.085 7.471 L 43.186 18.057 L 42.37 18.057 L 46.508 7.471 L 48.79 7.471 L 43.501 20.54 Z M 52.309 20.727 C 51.505 20.727 50.775 20.521 50.119 20.111 C 49.476 19.7 48.962 19.146 48.579 18.449 C 48.208 17.74 48.022 16.949 48.022 16.078 C 48.022 15.194 48.208 14.404 48.579 13.707 C 48.962 12.997 49.476 12.437 50.119 12.027 C 50.775 11.603 51.505 11.392 52.309 11.392 C 52.989 11.392 53.589 11.541 54.108 11.84 C 54.64 12.126 55.061 12.524 55.37 13.035 C 55.68 13.545 55.834 14.124 55.834 14.771 L 55.834 17.348 C 55.834 17.995 55.68 18.573 55.37 19.084 C 55.073 19.594 54.659 19.999 54.127 20.297 C 53.595 20.584 52.989 20.727 52.309 20.727 Z M 52.643 18.785 C 53.397 18.785 54.004 18.53 54.461 18.02 C 54.931 17.51 55.166 16.856 55.166 16.059 C 55.166 15.524 55.061 15.051 54.851 14.64 C 54.64 14.229 54.344 13.912 53.96 13.688 C 53.589 13.452 53.15 13.334 52.643 13.334 C 52.148 13.334 51.708 13.452 51.325 13.688 C 50.954 13.912 50.657 14.23 50.434 14.64 C 50.224 15.051 50.119 15.524 50.119 16.059 C 50.119 16.595 50.224 17.067 50.434 17.478 C 50.657 17.889 50.954 18.212 51.325 18.449 C 51.708 18.673 52.148 18.785 52.643 18.785 Z M 55.036 20.54 L 55.036 18.131 L 55.389 15.947 L 55.036 13.781 L 55.036 11.578 L 57.078 11.578 L 57.078 20.54 Z M 65.448 20.54 L 65.448 15.368 C 65.448 14.771 65.256 14.279 64.873 13.894 C 64.502 13.508 64.019 13.315 63.425 13.315 C 63.029 13.315 62.677 13.402 62.368 13.576 C 62.063 13.746 61.812 13.998 61.644 14.304 C 61.471 14.615 61.384 14.97 61.384 15.368 L 60.586 14.92 C 60.586 14.236 60.735 13.632 61.032 13.109 C 61.328 12.574 61.737 12.157 62.256 11.858 C 62.788 11.547 63.382 11.392 64.038 11.392 C 64.706 11.392 65.3 11.566 65.819 11.915 C 66.333 12.244 66.754 12.7 67.044 13.24 C 67.341 13.775 67.489 14.335 67.489 14.92 L 67.489 20.54 Z M 59.343 20.54 L 59.343 11.578 L 61.384 11.578 L 61.384 20.54 Z M 73.664 20.727 C 72.786 20.727 71.988 20.521 71.271 20.111 C 70.575 19.71 69.999 19.13 69.6 18.431 C 69.192 17.721 68.988 16.931 68.988 16.059 C 68.988 15.176 69.192 14.385 69.6 13.688 C 69.999 12.989 70.575 12.409 71.271 12.008 C 71.988 11.597 72.786 11.392 73.664 11.392 C 74.357 11.392 75 11.529 75.594 11.803 C 76.189 12.056 76.717 12.446 77.134 12.941 L 75.798 14.304 C 75.545 13.998 75.22 13.76 74.852 13.613 C 74.493 13.451 74.097 13.371 73.664 13.371 C 73.157 13.371 72.706 13.489 72.31 13.725 C 71.928 13.948 71.614 14.27 71.401 14.659 C 71.19 15.057 71.085 15.524 71.085 16.059 C 71.085 16.582 71.19 17.049 71.401 17.459 C 71.616 17.851 71.93 18.179 72.31 18.412 C 72.706 18.636 73.157 18.748 73.664 18.748 C 74.097 18.748 74.493 18.673 74.852 18.524 C 75.218 18.365 75.543 18.122 75.798 17.814 L 77.134 19.177 C 76.714 19.675 76.188 20.07 75.594 20.335 C 75 20.596 74.357 20.727 73.664 20.727 Z M 82.507 20.727 C 81.641 20.727 80.856 20.521 80.151 20.111 C 79.454 19.696 78.874 19.112 78.462 18.412 C 78.054 17.702 77.85 16.912 77.85 16.04 C 77.85 15.169 78.054 14.385 78.462 13.688 C 78.875 12.998 79.456 12.426 80.151 12.026 C 80.856 11.603 81.641 11.392 82.507 11.392 C 83.385 11.392 84.177 11.597 84.882 12.008 C 85.578 12.409 86.154 12.989 86.552 13.688 C 86.973 14.385 87.183 15.169 87.183 16.04 C 87.183 16.912 86.973 17.702 86.552 18.412 C 86.151 19.114 85.576 19.699 84.882 20.111 C 84.177 20.522 83.385 20.727 82.507 20.727 Z M 82.507 18.748 C 83.015 18.748 83.46 18.636 83.843 18.412 C 84.232 18.182 84.548 17.845 84.753 17.441 C 84.975 17.03 85.087 16.563 85.087 16.04 C 85.087 15.518 84.975 15.057 84.753 14.659 C 84.539 14.27 84.225 13.948 83.843 13.726 C 83.46 13.489 83.015 13.371 82.507 13.371 C 82.012 13.371 81.567 13.489 81.171 13.725 C 80.789 13.948 80.475 14.27 80.262 14.659 C 80.052 15.057 79.946 15.518 79.946 16.04 C 79.946 16.563 80.052 17.03 80.262 17.441 C 80.485 17.851 80.788 18.175 81.171 18.412 C 81.567 18.636 82.012 18.748 82.507 18.748 Z M 92.536 20.727 C 91.782 20.727 91.108 20.559 90.514 20.223 C 89.941 19.895 89.466 19.418 89.141 18.841 C 88.819 18.244 88.658 17.559 88.658 16.787 L 88.658 11.578 L 90.699 11.578 L 90.699 16.694 C 90.699 17.13 90.767 17.503 90.903 17.814 C 91.052 18.113 91.262 18.343 91.534 18.505 C 91.819 18.667 92.153 18.748 92.536 18.748 C 93.13 18.748 93.582 18.573 93.891 18.225 C 94.213 17.864 94.374 17.354 94.374 16.694 L 94.374 11.578 L 96.415 11.578 L 96.415 16.787 C 96.415 17.572 96.248 18.262 95.914 18.86 C 95.592 19.445 95.14 19.905 94.559 20.241 C 93.978 20.565 93.303 20.727 92.536 20.727 Z M 101.473 20.54 L 97.409 11.578 L 99.673 11.578 L 102.772 18.878 L 101.436 18.878 L 104.554 11.578 L 106.725 11.578 L 102.661 20.54 Z M 111.757 20.727 C 110.866 20.727 110.062 20.528 109.344 20.129 C 108.646 19.725 108.064 19.147 107.655 18.449 C 107.247 17.74 107.043 16.943 107.043 16.059 C 107.043 15.176 107.247 14.385 107.655 13.688 C 108.064 12.979 108.614 12.419 109.307 12.008 C 110.012 11.597 110.792 11.392 111.645 11.392 C 112.474 11.392 113.204 11.585 113.835 11.971 C 114.478 12.356 114.979 12.885 115.338 13.558 C 115.709 14.23 115.895 14.995 115.895 15.854 C 115.895 16.003 115.882 16.159 115.857 16.321 C 115.842 16.49 115.817 16.658 115.783 16.825 L 108.472 16.825 L 108.472 15.145 L 114.726 15.145 L 113.965 15.817 C 113.94 15.269 113.835 14.808 113.649 14.435 C 113.464 14.062 113.198 13.775 112.851 13.576 C 112.517 13.377 112.103 13.277 111.608 13.277 C 111.088 13.277 110.637 13.389 110.253 13.613 C 109.87 13.838 109.573 14.155 109.363 14.566 C 109.152 14.964 109.047 15.443 109.047 16.003 C 109.047 16.563 109.159 17.055 109.381 17.478 C 109.596 17.893 109.924 18.236 110.328 18.468 C 110.736 18.692 111.206 18.804 111.738 18.804 C 112.196 18.804 112.616 18.723 113 18.561 C 113.384 18.407 113.728 18.164 114.002 17.852 L 115.301 19.177 C 114.874 19.683 114.333 20.08 113.723 20.335 C 113.105 20.596 112.449 20.727 111.757 20.727 Z M 117.531 20.54 L 117.531 11.578 L 119.572 11.578 L 119.572 20.54 Z M 119.572 15.555 L 118.867 15.2 C 118.867 14.068 119.114 13.153 119.609 12.456 C 120.117 11.747 120.877 11.392 121.892 11.392 C 122.337 11.392 122.739 11.473 123.098 11.635 C 123.456 11.796 123.791 12.058 124.1 12.419 L 122.764 13.8 C 122.603 13.626 122.424 13.502 122.226 13.427 C 122.028 13.352 121.799 13.315 121.539 13.315 C 120.97 13.315 120.5 13.495 120.129 13.856 C 119.758 14.217 119.572 14.783 119.572 15.555 Z" fill="var(--token-bab5142a-9f6d-4043-b7bd-02888ac520b9, rgb(51, 51, 51))"></path></svg></defs><use href="#svg10624854504"></use></svg>