<svg style="width:100%;height:100%;" xmlns="http://www.w3.org/2000/svg"><defs><svg viewBox="0 0 117 25" id="svg11515427245"><path d="M 35.069 17.834 C 34.199 17.834 33.44 17.709 32.793 17.458 C 32.159 17.207 31.631 16.855 31.208 16.403 C 30.785 15.939 30.461 15.399 30.238 14.784 C 30.026 14.156 29.92 13.472 29.92 12.731 C 29.92 11.966 30.026 11.262 30.238 10.622 C 30.461 9.969 30.785 9.398 31.208 8.909 C 31.631 8.419 32.153 8.042 32.775 7.779 C 33.409 7.503 34.149 7.364 34.995 7.364 C 35.666 7.364 36.257 7.452 36.767 7.628 C 37.277 7.804 37.712 8.055 38.073 8.381 C 38.427 8.687 38.714 9.066 38.912 9.492 C 39.111 9.919 39.229 10.384 39.267 10.886 L 36.543 11.564 C 36.53 11.137 36.45 10.786 36.3 10.509 C 36.151 10.233 35.952 10.032 35.704 9.907 C 35.455 9.781 35.175 9.718 34.864 9.718 C 34.59 9.718 34.335 9.769 34.099 9.869 C 33.875 9.969 33.676 10.133 33.502 10.359 C 33.341 10.585 33.21 10.88 33.111 11.244 C 33.011 11.608 32.961 12.053 32.961 12.581 C 32.961 13.284 33.048 13.861 33.222 14.313 C 33.396 14.752 33.645 15.079 33.969 15.292 C 34.292 15.493 34.671 15.594 35.106 15.594 C 35.579 15.594 35.946 15.493 36.207 15.292 C 36.461 15.089 36.65 14.813 36.748 14.501 C 36.86 14.187 36.91 13.874 36.897 13.56 L 39.584 13.993 C 39.572 14.489 39.478 14.979 39.304 15.443 C 39.142 15.895 38.875 16.303 38.502 16.667 C 38.141 17.031 37.675 17.32 37.103 17.533 C 36.543 17.734 35.865 17.834 35.069 17.834 Z" fill="var(--token-bab5142a-9f6d-4043-b7bd-02888ac520b9, rgb(51, 51, 51))"></path><path d="M 42.318 17.834 C 41.771 17.834 41.28 17.734 40.844 17.533 C 40.425 17.335 40.069 17.022 39.818 16.629 C 39.569 16.215 39.445 15.7 39.445 15.085 C 39.445 14.42 39.588 13.886 39.874 13.485 C 40.17 13.085 40.562 12.767 41.012 12.562 C 41.481 12.337 41.976 12.173 42.486 12.072 C 42.976 11.978 43.467 11.89 43.96 11.809 C 44.432 11.733 44.799 11.664 45.06 11.601 C 45.334 11.539 45.526 11.444 45.638 11.319 C 45.763 11.194 45.825 11.03 45.825 10.829 C 45.825 10.604 45.769 10.409 45.657 10.246 C 45.558 10.07 45.402 9.938 45.191 9.85 C 44.979 9.75 44.718 9.7 44.407 9.7 C 44.095 9.698 43.785 9.755 43.493 9.869 C 43.22 9.982 42.983 10.164 42.784 10.415 C 42.598 10.654 42.473 10.968 42.411 11.357 L 39.762 10.773 C 39.862 10.158 40.054 9.637 40.34 9.21 C 40.616 8.781 40.979 8.415 41.404 8.137 C 41.831 7.858 42.305 7.661 42.803 7.553 C 43.325 7.427 43.879 7.364 44.463 7.364 C 45.209 7.364 45.85 7.459 46.385 7.647 C 46.932 7.835 47.38 8.124 47.728 8.513 C 48.088 8.89 48.35 9.367 48.511 9.944 C 48.685 10.522 48.773 11.2 48.773 11.978 L 48.773 13.579 C 48.773 14.018 48.779 14.464 48.791 14.916 L 48.828 16.234 C 48.853 16.673 48.885 17.119 48.922 17.571 L 46.291 17.571 C 46.251 17.188 46.214 16.805 46.179 16.422 C 46.154 15.977 46.135 15.531 46.124 15.085 L 45.844 15.085 C 45.721 15.597 45.485 16.073 45.153 16.479 C 44.83 16.893 44.426 17.226 43.941 17.477 C 43.468 17.715 42.927 17.834 42.318 17.834 Z M 43.624 15.669 C 43.835 15.669 44.059 15.631 44.295 15.556 C 44.537 15.465 44.763 15.338 44.967 15.179 C 45.178 15.016 45.365 14.809 45.526 14.558 C 45.688 14.307 45.8 14.012 45.862 13.673 L 45.844 12.543 L 46.273 12.581 C 46.086 12.744 45.862 12.869 45.601 12.957 C 45.326 13.049 45.046 13.124 44.762 13.183 C 44.476 13.233 44.19 13.29 43.903 13.353 C 43.618 13.403 43.356 13.472 43.12 13.56 C 42.896 13.648 42.716 13.767 42.579 13.918 C 42.455 14.068 42.392 14.282 42.392 14.558 C 42.392 14.897 42.504 15.167 42.728 15.368 C 42.965 15.569 43.263 15.669 43.624 15.669 Z M 49.708 17.571 L 49.708 7.628 L 52.134 7.628 L 52.152 10.942 L 52.469 10.942 C 52.606 10.114 52.811 9.436 53.085 8.909 C 53.358 8.381 53.7 7.992 54.111 7.741 C 54.534 7.49 55.031 7.365 55.603 7.365 C 56.014 7.365 56.38 7.434 56.704 7.572 C 57.028 7.71 57.31 7.931 57.525 8.212 C 57.749 8.488 57.929 8.859 58.066 9.323 C 58.202 9.775 58.29 10.315 58.327 10.942 L 58.57 10.942 C 58.731 10.101 58.967 9.417 59.278 8.89 C 59.589 8.362 59.969 7.98 60.416 7.741 C 60.864 7.49 61.362 7.365 61.909 7.365 C 62.468 7.365 62.935 7.471 63.308 7.685 C 63.693 7.898 64.004 8.181 64.241 8.532 C 64.477 8.884 64.657 9.285 64.782 9.737 C 64.919 10.179 65.012 10.633 65.061 11.093 C 65.111 11.557 65.136 11.997 65.136 12.411 L 65.136 17.571 L 62.114 17.571 L 62.114 12.712 C 62.114 12.499 62.102 12.242 62.076 11.94 C 62.063 11.634 62.013 11.331 61.927 11.037 C 61.84 10.735 61.703 10.484 61.517 10.283 C 61.33 10.082 61.069 9.982 60.733 9.982 C 60.373 9.982 60.049 10.12 59.763 10.396 C 59.49 10.672 59.272 11.062 59.111 11.564 C 58.961 12.066 58.887 12.675 58.887 13.391 L 58.887 17.571 L 55.939 17.571 L 55.939 12.731 C 55.939 12.53 55.927 12.279 55.902 11.978 C 55.89 11.665 55.839 11.355 55.753 11.055 C 55.678 10.754 55.541 10.503 55.342 10.302 C 55.156 10.089 54.882 9.982 54.521 9.982 C 54.173 9.982 53.862 10.114 53.588 10.377 C 53.315 10.628 53.097 11.011 52.936 11.526 C 52.786 12.028 52.712 12.649 52.712 13.39 L 52.712 17.571 Z M 72.165 17.834 C 71.568 17.834 71.039 17.715 70.579 17.477 C 70.131 17.226 69.765 16.862 69.478 16.384 C 69.192 15.895 68.993 15.292 68.881 14.577 L 68.602 14.577 L 68.564 17.571 L 66.046 17.571 L 66.046 4.144 L 69.049 4.144 L 69.049 7.308 C 69.049 7.622 69.031 7.955 68.993 8.306 C 68.953 8.678 68.904 9.048 68.844 9.417 C 68.778 9.814 68.704 10.21 68.62 10.603 L 68.975 10.603 C 69.124 9.876 69.342 9.279 69.628 8.814 C 69.914 8.337 70.274 7.98 70.71 7.741 C 71.145 7.503 71.655 7.383 72.239 7.383 C 73.023 7.383 73.701 7.591 74.273 8.005 C 74.857 8.407 75.311 8.996 75.634 9.775 C 75.958 10.541 76.12 11.482 76.12 12.599 C 76.12 13.717 75.952 14.665 75.616 15.443 C 75.292 16.221 74.832 16.818 74.235 17.232 C 73.651 17.634 72.961 17.835 72.165 17.835 Z M 71.064 15.386 C 71.462 15.386 71.804 15.274 72.09 15.047 C 72.389 14.809 72.612 14.482 72.762 14.068 C 72.923 13.641 73.004 13.164 73.004 12.637 C 73.004 12.085 72.93 11.601 72.78 11.187 C 72.631 10.773 72.413 10.447 72.128 10.208 C 71.854 9.969 71.512 9.85 71.101 9.85 C 70.865 9.85 70.641 9.894 70.43 9.982 C 70.216 10.071 70.02 10.199 69.851 10.359 C 69.683 10.518 69.538 10.702 69.422 10.905 C 69.294 11.128 69.2 11.369 69.143 11.62 C 69.08 11.884 69.049 12.16 69.049 12.449 L 69.049 12.75 C 69.049 13.089 69.093 13.416 69.18 13.729 C 69.261 14.029 69.387 14.315 69.553 14.577 C 69.72 14.821 69.936 15.026 70.187 15.179 C 70.436 15.317 70.728 15.386 71.064 15.386 Z M 76.736 17.571 L 76.736 7.628 L 79.236 7.628 L 79.273 11.206 L 79.571 11.206 C 79.659 10.264 79.82 9.517 80.057 8.965 C 80.293 8.413 80.61 8.017 81.008 7.779 C 81.419 7.528 81.916 7.402 82.5 7.402 C 82.65 7.402 82.805 7.415 82.967 7.44 C 83.129 7.465 83.302 7.515 83.489 7.591 L 83.377 10.867 C 83.141 10.754 82.905 10.673 82.668 10.622 C 82.432 10.572 82.214 10.547 82.015 10.547 C 81.555 10.547 81.163 10.647 80.84 10.848 C 80.517 11.049 80.262 11.351 80.075 11.752 C 79.901 12.154 79.795 12.656 79.758 13.259 L 79.758 17.571 Z M 83.819 17.571 L 83.819 7.628 L 86.823 7.628 L 86.823 17.571 Z M 85.33 6.479 C 84.758 6.479 84.316 6.36 84.006 6.122 C 83.707 5.871 83.558 5.513 83.558 5.048 C 83.558 4.571 83.707 4.214 84.006 3.975 C 84.316 3.724 84.758 3.598 85.33 3.598 C 85.915 3.598 86.356 3.724 86.655 3.975 C 86.965 4.226 87.121 4.584 87.121 5.048 C 87.121 5.5 86.965 5.852 86.655 6.103 C 86.356 6.354 85.915 6.479 85.33 6.479 Z M 91.423 17.834 C 90.639 17.834 89.943 17.634 89.334 17.232 C 88.736 16.818 88.27 16.215 87.934 15.424 C 87.599 14.633 87.431 13.673 87.431 12.543 C 87.431 11.489 87.58 10.578 87.878 9.812 C 88.177 9.034 88.612 8.438 89.184 8.024 C 89.756 7.597 90.459 7.383 91.292 7.383 C 91.889 7.383 92.405 7.503 92.841 7.741 C 93.276 7.967 93.637 8.319 93.923 8.796 C 94.208 9.273 94.426 9.875 94.576 10.604 L 94.93 10.604 C 94.858 10.201 94.783 9.799 94.706 9.398 C 94.648 9.022 94.592 8.645 94.538 8.269 C 94.503 7.95 94.484 7.629 94.482 7.308 L 94.482 4.144 L 97.504 4.144 L 97.504 17.571 L 94.986 17.571 L 94.967 14.577 L 94.65 14.577 C 94.513 15.33 94.302 15.945 94.016 16.422 C 93.73 16.899 93.369 17.257 92.934 17.496 C 92.498 17.721 91.995 17.834 91.423 17.834 Z M 92.486 15.386 C 92.822 15.386 93.114 15.317 93.363 15.179 C 93.611 15.029 93.822 14.823 93.978 14.577 C 94.156 14.319 94.288 14.032 94.37 13.729 C 94.457 13.416 94.501 13.089 94.501 12.75 L 94.501 12.449 C 94.501 12.16 94.464 11.89 94.389 11.639 C 94.332 11.388 94.237 11.147 94.109 10.924 C 94.005 10.708 93.859 10.516 93.68 10.359 C 93.52 10.197 93.33 10.069 93.12 9.982 C 92.907 9.894 92.679 9.849 92.449 9.85 C 92.038 9.85 91.69 9.97 91.404 10.208 C 91.131 10.447 90.919 10.773 90.77 11.187 C 90.621 11.601 90.546 12.079 90.546 12.618 C 90.546 13.158 90.627 13.641 90.788 14.068 C 90.95 14.482 91.174 14.809 91.46 15.047 C 91.759 15.274 92.101 15.386 92.486 15.386 Z M 102.505 20.885 C 101.398 20.885 100.502 20.797 99.818 20.621 C 99.147 20.446 98.655 20.195 98.345 19.868 C 98.034 19.554 97.878 19.165 97.878 18.701 C 97.878 18.136 98.102 17.677 98.55 17.326 C 98.997 16.974 99.65 16.761 100.508 16.686 L 100.508 16.403 C 99.849 16.403 99.333 16.322 98.96 16.159 C 98.6 15.983 98.419 15.7 98.419 15.311 C 98.419 14.96 98.593 14.639 98.942 14.351 C 99.29 14.062 99.868 13.867 100.676 13.767 L 100.676 13.466 C 99.943 13.365 99.358 13.089 98.923 12.637 C 98.5 12.185 98.289 11.595 98.289 10.867 C 98.289 10.239 98.456 9.674 98.792 9.172 C 99.141 8.67 99.65 8.275 100.322 7.986 C 101.006 7.697 101.846 7.553 102.84 7.553 L 107.877 7.553 L 107.877 9.85 L 104.669 9.417 L 104.669 9.756 C 105.551 9.882 106.173 10.089 106.534 10.377 C 106.895 10.666 107.075 11.049 107.075 11.526 C 107.075 12.016 106.913 12.449 106.59 12.826 C 106.267 13.202 105.8 13.503 105.191 13.729 C 104.581 13.943 103.841 14.049 102.971 14.049 C 102.785 14.049 102.579 14.043 102.356 14.031 C 102.144 14.006 101.846 13.968 101.46 13.918 C 101.261 14.056 101.099 14.181 100.975 14.294 C 100.863 14.407 100.807 14.514 100.807 14.614 C 100.807 14.677 100.838 14.734 100.9 14.784 C 100.963 14.822 101.043 14.853 101.143 14.878 C 101.255 14.903 101.379 14.916 101.516 14.916 L 104.519 14.916 C 104.768 14.916 105.091 14.934 105.489 14.972 C 105.887 14.997 106.285 15.092 106.683 15.255 C 107.081 15.405 107.417 15.663 107.691 16.027 C 107.964 16.391 108.101 16.912 108.101 17.59 C 108.101 18.33 107.896 18.945 107.485 19.435 C 107.088 19.925 106.472 20.289 105.639 20.527 C 104.818 20.766 103.773 20.885 102.505 20.885 Z M 102.747 18.381 C 103.506 18.381 104.084 18.343 104.482 18.267 C 104.88 18.205 105.148 18.098 105.284 17.947 C 105.433 17.809 105.508 17.64 105.508 17.439 C 105.508 17.226 105.465 17.062 105.378 16.949 C 105.294 16.826 105.167 16.739 105.023 16.705 C 104.885 16.654 104.741 16.622 104.594 16.61 C 104.476 16.599 104.358 16.593 104.24 16.592 L 101.796 16.592 C 101.36 16.642 101.043 16.761 100.844 16.949 C 100.658 17.125 100.565 17.339 100.565 17.59 C 100.565 17.803 100.639 17.966 100.788 18.079 C 100.95 18.192 101.193 18.267 101.516 18.305 C 101.839 18.355 102.25 18.381 102.747 18.381 Z M 102.785 12.487 C 103.269 12.487 103.636 12.349 103.885 12.072 C 104.134 11.796 104.258 11.438 104.258 10.999 C 104.258 10.534 104.128 10.158 103.867 9.869 C 103.618 9.568 103.257 9.417 102.785 9.417 C 102.312 9.417 101.939 9.568 101.665 9.869 C 101.404 10.158 101.273 10.534 101.273 10.999 C 101.273 11.288 101.329 11.545 101.441 11.771 C 101.562 11.993 101.743 12.176 101.964 12.298 C 102.188 12.424 102.461 12.487 102.785 12.487 Z" fill="var(--token-bab5142a-9f6d-4043-b7bd-02888ac520b9, rgb(51, 51, 51))"></path><path d="M 112.938 17.834 C 112.08 17.834 111.328 17.715 110.681 17.477 C 110.047 17.238 109.512 16.899 109.077 16.46 C 108.654 16.008 108.331 15.474 108.107 14.859 C 107.895 14.244 107.79 13.554 107.79 12.788 C 107.79 12.035 107.895 11.325 108.107 10.66 C 108.318 9.995 108.629 9.417 109.04 8.927 C 109.463 8.438 109.985 8.055 110.607 7.779 C 111.228 7.503 111.937 7.364 112.733 7.364 C 113.542 7.364 114.244 7.503 114.841 7.779 C 115.451 8.042 115.948 8.432 116.334 8.946 C 116.719 9.461 116.987 10.076 117.136 10.792 C 117.298 11.495 117.335 12.286 117.248 13.164 L 109.73 13.24 L 109.73 11.639 L 115.326 11.564 L 114.506 12.374 C 114.58 11.771 114.549 11.275 114.412 10.886 C 114.275 10.484 114.064 10.189 113.778 10.001 C 113.492 9.8 113.156 9.7 112.771 9.7 C 112.323 9.7 111.944 9.819 111.633 10.057 C 111.322 10.296 111.085 10.641 110.924 11.093 C 110.762 11.532 110.681 12.072 110.681 12.712 C 110.681 13.729 110.88 14.47 111.278 14.935 C 111.689 15.399 112.242 15.631 112.938 15.631 C 113.262 15.631 113.529 15.587 113.741 15.499 C 113.952 15.412 114.126 15.299 114.263 15.161 C 114.397 15.014 114.499 14.841 114.561 14.652 C 114.636 14.465 114.686 14.269 114.711 14.068 L 117.378 14.502 C 117.331 14.945 117.211 15.378 117.024 15.782 C 116.85 16.171 116.582 16.522 116.222 16.836 C 115.874 17.138 115.432 17.382 114.897 17.571 C 114.363 17.747 113.71 17.835 112.938 17.835 Z" fill="var(--token-bab5142a-9f6d-4043-b7bd-02888ac520b9, rgb(51, 51, 51))"></path><path d="M 11.73 0.017 C 5.194 0.36 0 5.818 0 12.5 C 0 19.182 5.194 24.64 11.73 24.983 C 9.972 21.587 8.916 17.239 8.916 12.5 C 8.916 7.761 9.972 3.413 11.73 0.017 Z" fill="var(--token-bab5142a-9f6d-4043-b7bd-02888ac520b9, rgb(51, 51, 51))"></path><path d="M 11.727 0.017 C 11.946 0.006 12.165 0 12.383 0 C 19.106 0 24.578 5.408 24.762 12.149 C 24.545 12.161 24.326 12.167 24.106 12.167 C 17.383 12.167 11.912 6.759 11.727 0.017 Z M 11.727 24.983 C 11.945 24.994 12.163 25 12.383 25 C 19.106 25 24.578 19.592 24.762 12.851 C 24.543 12.839 24.325 12.833 24.106 12.833 C 17.383 12.833 11.912 18.241 11.727 24.983 Z" fill="var(--token-bab5142a-9f6d-4043-b7bd-02888ac520b9, rgb(51, 51, 51))"></path></svg></defs><use href="#svg11515427245"></use></svg>