<svg style="width:100%;height:100%;" xmlns="http://www.w3.org/2000/svg"><defs><svg viewBox="0 0 105 22" id="svg12682499136"><path d="M 4.132 0 L 0.408 0 C 0.208 0 0.046 0.164 0.046 0.367 L 0.046 7.475 Z M 0.045 9.762 L 0.081 9.762 L 5.761 9.762 C 5.973 9.762 6.175 9.852 6.319 10.01 C 6.463 10.169 6.534 10.381 6.517 10.595 L 6.025 16.399 C 5.955 17.224 7.049 17.56 7.445 16.836 L 13.347 6.042 C 13.626 5.531 13.26 4.904 12.683 4.904 L 7.002 4.904 C 6.79 4.904 6.587 4.814 6.444 4.656 C 6.3 4.498 6.228 4.286 6.246 4.072 L 6.591 0 L 12.323 0 C 17.604 0 19.971 6.727 15.887 10.128 L 12.694 12.786 C 12.484 12.961 12.443 13.269 12.6 13.494 L 18.109 21.422 C 18.187 21.534 18.197 21.681 18.135 21.802 C 18.072 21.924 17.948 22 17.813 22 L 0.407 22 C 0.207 22 0.045 21.836 0.045 21.633 Z M 62.088 11.909 L 62.088 17.469 L 65.12 17.469 L 65.12 11.227 C 65.12 10.491 64.962 9.849 64.645 9.3 C 64.341 8.739 63.905 8.304 63.337 7.996 C 62.768 7.675 62.108 7.514 61.355 7.514 C 60.615 7.514 59.961 7.675 59.393 7.996 C 59.165 8.119 58.953 8.268 58.759 8.441 L 58.759 3.3 L 55.727 3.3 L 55.727 17.469 L 58.759 17.469 L 58.759 11.909 C 58.759 11.575 58.831 11.28 58.977 11.026 C 59.122 10.758 59.32 10.558 59.571 10.424 C 59.822 10.277 60.113 10.203 60.443 10.203 C 60.919 10.203 61.309 10.364 61.613 10.685 C 61.93 10.993 62.088 11.401 62.088 11.909 Z" fill="var(--token-bab5142a-9f6d-4043-b7bd-02888ac520b9, rgb(51, 51, 51))"></path><path d="M 28.4 11.628 L 28.4 17.469 L 25.289 17.469 L 25.289 3.3 L 30.996 3.3 C 31.921 3.3 32.734 3.481 33.434 3.842 C 34.134 4.19 34.683 4.678 35.079 5.307 C 35.475 5.936 35.673 6.658 35.673 7.474 C 35.673 8.304 35.475 9.033 35.079 9.662 C 34.683 10.277 34.128 10.759 33.414 11.107 C 33.016 11.301 32.579 11.441 32.103 11.527 L 36.585 17.469 L 32.899 17.469 L 28.726 11.628 Z M 28.4 9.3 L 30.62 9.3 C 31.241 9.3 31.717 9.14 32.047 8.819 C 32.39 8.498 32.562 8.063 32.562 7.514 C 32.562 7.006 32.397 6.585 32.067 6.25 C 31.736 5.915 31.261 5.748 30.64 5.748 L 28.4 5.748 Z" fill="var(--token-bab5142a-9f6d-4043-b7bd-02888ac520b9, rgb(51, 51, 51))"></path><path d="M 38.586 17.047 C 39.405 17.475 40.337 17.689 41.38 17.689 C 42.186 17.689 42.926 17.549 43.6 17.268 C 44.266 16.992 44.858 16.559 45.324 16.004 L 43.659 14.318 C 43.381 14.643 43.036 14.903 42.648 15.08 C 42.265 15.241 41.836 15.321 41.36 15.321 C 40.845 15.321 40.396 15.214 40.013 15 C 39.643 14.773 39.353 14.458 39.141 14.057 C 39.073 13.914 39.018 13.765 38.975 13.612 L 45.879 13.595 C 45.932 13.341 45.965 13.12 45.978 12.933 C 45.987 12.863 45.994 12.795 46 12.728 C 46.004 12.695 46.006 12.662 46.008 12.63 C 46.011 12.582 46.014 12.534 46.015 12.487 L 46.017 12.436 L 46.018 12.371 C 46.018 11.421 45.806 10.578 45.384 9.842 C 44.985 9.118 44.395 8.52 43.679 8.117 C 42.953 7.702 42.113 7.494 41.163 7.494 C 40.185 7.494 39.306 7.715 38.527 8.156 C 37.757 8.588 37.115 9.218 36.664 9.983 C 36.214 10.746 35.99 11.615 35.99 12.592 C 35.99 13.568 36.221 14.445 36.683 15.221 C 37.146 15.997 37.78 16.606 38.586 17.047 Z M 38.976 11.504 C 38.991 11.453 39.007 11.401 39.024 11.351 C 39.053 11.266 39.085 11.184 39.121 11.107 C 39.32 10.705 39.59 10.398 39.934 10.183 C 40.29 9.956 40.707 9.842 41.182 9.842 C 41.631 9.842 42.008 9.943 42.312 10.143 L 42.353 10.168 L 42.393 10.194 C 42.461 10.24 42.525 10.29 42.585 10.345 C 42.769 10.515 42.916 10.728 43.025 10.986 C 43.092 11.137 43.145 11.306 43.186 11.492 Z" fill="var(--token-bab5142a-9f6d-4043-b7bd-02888ac520b9, rgb(51, 51, 51))"></path><path d="M 51.346 17.689 C 50.354 17.689 49.456 17.469 48.65 17.027 C 47.845 16.585 47.211 15.977 46.748 15.201 C 46.285 14.425 46.054 13.555 46.054 12.592 C 46.054 11.615 46.285 10.746 46.748 9.983 C 47.224 9.207 47.864 8.598 48.67 8.157 C 49.476 7.715 50.381 7.494 51.385 7.494 C 52.138 7.494 52.825 7.628 53.446 7.896 C 53.763 8.023 54.061 8.183 54.341 8.376 C 54.622 8.57 54.886 8.799 55.13 9.06 L 53.188 11.026 C 52.972 10.778 52.7 10.586 52.396 10.465 C 52.253 10.406 52.105 10.363 51.954 10.334 C 51.88 10.32 51.806 10.309 51.732 10.301 C 51.617 10.289 51.501 10.283 51.385 10.284 C 51.278 10.284 51.174 10.29 51.072 10.302 L 51.018 10.309 L 50.984 10.314 C 50.713 10.355 50.453 10.446 50.216 10.585 C 49.885 10.772 49.622 11.04 49.423 11.388 C 49.238 11.722 49.145 12.117 49.145 12.572 C 49.145 13.027 49.238 13.428 49.423 13.776 C 49.617 14.119 49.897 14.403 50.236 14.599 C 50.579 14.799 50.962 14.899 51.385 14.899 C 51.782 14.899 52.131 14.833 52.435 14.699 C 52.744 14.558 53.021 14.353 53.248 14.097 L 55.17 16.064 C 54.668 16.599 54.1 17.007 53.466 17.288 C 52.832 17.556 52.125 17.689 51.346 17.689 Z" fill="var(--token-bab5142a-9f6d-4043-b7bd-02888ac520b9, rgb(51, 51, 51))"></path><path d="M 70.298 17.669 C 69.413 17.669 68.62 17.449 67.92 17.007 C 67.233 16.565 66.684 15.964 66.275 15.201 C 65.878 14.438 65.68 13.569 65.68 12.592 C 65.68 11.615 65.878 10.746 66.275 9.983 C 66.684 9.22 67.233 8.618 67.92 8.177 C 68.62 7.735 69.413 7.514 70.298 7.514 C 70.945 7.514 71.526 7.641 72.042 7.896 C 72.377 8.055 72.684 8.267 72.953 8.525 L 72.953 7.715 L 75.926 7.715 L 75.926 17.468 L 72.953 17.468 L 72.953 16.678 C 72.736 16.886 72.491 17.062 72.227 17.203 C 72.173 17.233 72.118 17.261 72.061 17.288 C 71.533 17.542 70.945 17.669 70.298 17.669 Z M 70.912 14.9 C 71.56 14.9 72.081 14.686 72.478 14.257 C 72.874 13.816 73.072 13.261 73.072 12.592 C 73.072 12.364 73.049 12.15 73.003 11.949 C 72.958 11.754 72.888 11.565 72.795 11.388 C 72.631 11.048 72.368 10.768 72.042 10.585 C 71.861 10.471 71.663 10.389 71.456 10.341 C 71.284 10.302 71.108 10.283 70.932 10.284 C 70.73 10.283 70.529 10.308 70.333 10.359 C 70.146 10.409 69.968 10.485 69.802 10.585 C 69.485 10.772 69.228 11.04 69.029 11.388 C 68.845 11.736 68.752 12.137 68.752 12.592 C 68.752 13.033 68.845 13.428 69.029 13.776 C 69.208 14.117 69.475 14.401 69.802 14.598 C 70.132 14.799 70.502 14.9 70.912 14.9 Z" fill="var(--token-bab5142a-9f6d-4043-b7bd-02888ac520b9, rgb(51, 51, 51))"></path><path d="M 80.3 7.715 L 77.268 7.715 L 77.268 17.468 L 80.3 17.468 L 80.3 12.111 C 80.3 11.481 80.445 11.014 80.736 10.706 C 81.04 10.385 81.443 10.224 81.945 10.224 C 82.196 10.224 82.42 10.264 82.619 10.344 C 82.807 10.418 82.977 10.535 83.114 10.685 L 84.917 8.378 C 84.663 8.09 84.343 7.87 83.986 7.736 C 83.643 7.588 83.239 7.515 82.777 7.515 C 81.72 7.515 80.895 7.829 80.3 8.458 L 80.3 7.715 Z" fill="var(--token-bab5142a-9f6d-4043-b7bd-02888ac520b9, rgb(51, 51, 51))"></path><path d="M 88.744 21.843 C 87.687 21.843 86.755 21.656 85.95 21.282 C 85.157 20.921 84.529 20.405 84.067 19.736 L 85.929 17.85 C 86.273 18.265 86.657 18.579 87.079 18.793 C 87.515 19.007 88.037 19.114 88.645 19.114 C 89.398 19.114 89.985 18.927 90.408 18.552 C 90.844 18.177 91.063 17.649 91.063 16.967 L 91.063 16.351 C 90.849 16.523 90.616 16.669 90.369 16.786 C 89.84 17.04 89.253 17.167 88.605 17.167 C 87.72 17.167 86.934 16.954 86.247 16.525 C 85.56 16.097 85.018 15.515 84.622 14.779 C 84.225 14.043 84.027 13.227 84.027 12.331 C 84.027 11.421 84.225 10.605 84.622 9.882 C 85.018 9.146 85.56 8.571 86.247 8.156 C 86.934 7.729 87.72 7.514 88.605 7.514 C 89.266 7.514 89.854 7.641 90.369 7.896 C 90.641 8.018 90.894 8.177 91.122 8.371 L 91.122 7.715 L 94.094 7.715 L 94.094 16.886 C 94.094 17.89 93.863 18.759 93.401 19.495 C 92.938 20.231 92.304 20.806 91.498 21.221 C 90.692 21.636 89.774 21.843 88.744 21.843 Z M 89.18 14.438 C 89.603 14.438 89.966 14.344 90.27 14.157 C 90.347 14.111 90.421 14.062 90.489 14.008 C 90.695 13.849 90.863 13.647 90.983 13.414 C 91.034 13.319 91.078 13.22 91.113 13.117 C 91.16 12.984 91.194 12.845 91.215 12.7 C 91.232 12.578 91.241 12.455 91.241 12.331 C 91.241 11.929 91.155 11.568 90.983 11.247 C 90.825 10.927 90.577 10.661 90.27 10.484 C 89.966 10.297 89.603 10.204 89.18 10.204 C 89.055 10.204 88.935 10.212 88.818 10.23 L 88.758 10.24 L 88.704 10.25 C 88.529 10.285 88.359 10.344 88.199 10.425 C 88.162 10.443 88.126 10.463 88.09 10.484 C 87.78 10.664 87.526 10.928 87.357 11.247 C 87.267 11.415 87.2 11.595 87.158 11.782 C 87.118 11.962 87.098 12.146 87.099 12.331 C 87.099 12.705 87.185 13.06 87.357 13.394 C 87.522 13.709 87.769 13.973 88.07 14.157 C 88.24 14.258 88.426 14.332 88.627 14.378 C 88.8 14.418 88.984 14.438 89.18 14.438 Z M 97.404 17.047 C 98.222 17.475 99.154 17.689 100.198 17.689 C 101.003 17.689 101.744 17.549 102.417 17.268 C 103.083 16.992 103.675 16.559 104.141 16.004 L 102.476 14.318 C 102.198 14.643 101.853 14.903 101.466 15.08 C 101.083 15.241 100.653 15.321 100.178 15.321 C 99.663 15.321 99.213 15.214 98.83 15 C 98.526 14.814 98.267 14.56 98.075 14.257 C 98.033 14.192 97.994 14.125 97.958 14.057 C 97.89 13.914 97.835 13.765 97.792 13.612 L 104.696 13.595 C 104.722 13.47 104.744 13.352 104.76 13.243 C 104.777 13.131 104.789 13.028 104.795 12.933 C 104.804 12.862 104.812 12.793 104.818 12.726 C 104.829 12.602 104.835 12.484 104.835 12.371 C 104.835 11.421 104.623 10.578 104.201 9.842 C 103.802 9.118 103.212 8.52 102.497 8.117 C 101.77 7.702 100.931 7.494 99.98 7.494 C 99.002 7.494 98.124 7.715 97.344 8.156 C 96.575 8.588 95.932 9.218 95.481 9.983 C 95.032 10.746 94.807 11.615 94.807 12.592 C 94.807 13.568 95.038 14.445 95.501 15.221 C 95.963 15.997 96.597 16.606 97.404 17.047 Z M 97.794 11.504 C 97.831 11.368 97.88 11.235 97.939 11.107 C 98.044 10.888 98.183 10.687 98.349 10.511 C 98.469 10.385 98.604 10.275 98.751 10.184 C 99.108 9.956 99.524 9.842 99.999 9.842 C 100.449 9.842 100.825 9.943 101.129 10.143 C 101.25 10.215 101.36 10.3 101.458 10.399 C 101.616 10.559 101.745 10.755 101.842 10.986 C 101.909 11.137 101.962 11.306 102.004 11.492 Z" fill="var(--token-bab5142a-9f6d-4043-b7bd-02888ac520b9, rgb(51, 51, 51))"></path></svg></defs><use href="#svg12682499136"></use></svg>