<svg style="width:100%;height:100%;" xmlns="http://www.w3.org/2000/svg"><defs><svg viewBox="0 0 81 21" id="svg10980058274"><path d="M 34.44 16.42 L 31.846 16.42 L 27.508 9.84 L 27.508 16.42 L 24.914 16.42 L 24.914 5.753 L 27.508 5.753 L 31.846 12.363 L 31.846 5.753 L 34.44 5.753 Z M 35.805 12.165 C 35.805 11.294 35.967 10.529 36.29 9.871 C 36.624 9.212 37.074 8.706 37.64 8.351 C 38.207 7.997 38.839 7.819 39.536 7.819 C 40.133 7.819 40.654 7.941 41.099 8.184 C 41.554 8.427 41.903 8.746 42.145 9.141 L 42.145 7.941 L 44.739 7.941 L 44.739 16.42 L 42.145 16.42 L 42.145 15.219 C 41.893 15.614 41.539 15.933 41.084 16.177 C 40.639 16.42 40.118 16.541 39.521 16.541 C 38.834 16.541 38.207 16.364 37.64 16.009 C 37.074 15.645 36.624 15.133 36.29 14.475 C 35.967 13.806 35.805 13.036 35.805 12.165 Z M 42.145 12.18 C 42.145 11.532 41.963 11.021 41.599 10.646 C 41.245 10.271 40.811 10.083 40.295 10.083 C 39.779 10.083 39.339 10.271 38.975 10.646 C 38.621 11.01 38.444 11.517 38.444 12.165 C 38.444 12.813 38.621 13.33 38.975 13.715 C 39.339 14.09 39.779 14.277 40.295 14.277 C 40.811 14.277 41.245 14.09 41.599 13.715 C 41.963 13.34 42.145 12.829 42.145 12.18 Z M 47.92 7.06 C 47.465 7.06 47.091 6.928 46.798 6.665 C 46.515 6.391 46.373 6.057 46.373 5.662 C 46.373 5.257 46.515 4.922 46.798 4.659 C 47.091 4.385 47.465 4.249 47.92 4.249 C 48.365 4.249 48.729 4.385 49.013 4.659 C 49.306 4.922 49.452 5.257 49.452 5.662 C 49.452 6.057 49.306 6.391 49.013 6.665 C 48.729 6.928 48.365 7.06 47.92 7.06 Z M 49.21 7.941 L 49.21 16.42 L 46.616 16.42 L 46.616 7.941 Z M 53.683 9.354 C 53.987 8.888 54.366 8.524 54.821 8.26 C 55.276 7.987 55.782 7.85 56.338 7.85 L 56.338 10.6 L 55.625 10.6 C 54.978 10.6 54.493 10.742 54.169 11.026 C 53.845 11.299 53.683 11.785 53.683 12.484 L 53.683 16.42 L 51.09 16.42 L 51.09 7.941 L 53.683 7.941 L 53.683 9.354 Z M 61.431 16.541 C 60.602 16.541 59.853 16.364 59.186 16.009 C 58.529 15.655 58.008 15.148 57.623 14.49 C 57.249 13.832 57.062 13.062 57.062 12.18 C 57.062 11.309 57.254 10.545 57.639 9.886 C 58.023 9.217 58.549 8.706 59.216 8.351 C 59.884 7.997 60.632 7.819 61.461 7.819 C 62.29 7.819 63.039 7.997 63.706 8.351 C 64.374 8.706 64.9 9.217 65.284 9.886 C 65.668 10.544 65.86 11.309 65.86 12.18 C 65.86 13.051 65.663 13.821 65.269 14.49 C 64.884 15.148 64.353 15.655 63.676 16.009 C 63.008 16.364 62.26 16.541 61.431 16.541 Z M 61.431 14.292 C 61.926 14.292 62.346 14.11 62.69 13.745 C 63.044 13.381 63.221 12.859 63.221 12.18 C 63.221 11.502 63.049 10.98 62.705 10.615 C 62.371 10.251 61.957 10.068 61.461 10.068 C 60.956 10.068 60.536 10.251 60.202 10.615 C 59.868 10.97 59.702 11.491 59.702 12.18 C 59.702 12.859 59.863 13.381 60.187 13.745 C 60.521 14.11 60.935 14.292 61.431 14.292 Z M 69.83 9.142 C 70.073 8.746 70.422 8.427 70.877 8.184 C 71.332 7.941 71.853 7.819 72.439 7.819 C 73.137 7.819 73.769 7.997 74.335 8.351 C 74.902 8.706 75.347 9.212 75.67 9.871 C 76.004 10.529 76.171 11.294 76.171 12.165 C 76.171 13.036 76.004 13.806 75.67 14.475 C 75.347 15.133 74.902 15.645 74.335 16.009 C 73.769 16.364 73.137 16.541 72.439 16.541 C 71.843 16.541 71.322 16.425 70.877 16.192 C 70.432 15.949 70.083 15.629 69.83 15.234 L 69.83 16.42 L 67.236 16.42 L 67.236 5.175 L 69.83 5.175 L 69.83 9.141 Z M 73.531 12.165 C 73.531 11.517 73.349 11.01 72.985 10.646 C 72.632 10.271 72.191 10.083 71.666 10.083 C 71.15 10.083 70.71 10.271 70.346 10.646 C 69.992 11.021 69.815 11.532 69.815 12.18 C 69.815 12.829 69.992 13.34 70.346 13.715 C 70.71 14.09 71.15 14.277 71.666 14.277 C 72.181 14.277 72.621 14.09 72.985 13.715 C 73.349 13.33 73.531 12.813 73.531 12.165 Z M 78.836 7.06 C 78.381 7.06 78.007 6.928 77.714 6.665 C 77.431 6.391 77.289 6.057 77.289 5.662 C 77.289 5.257 77.431 4.922 77.714 4.659 C 78.007 4.385 78.381 4.249 78.836 4.249 C 79.281 4.249 79.645 4.385 79.928 4.659 C 80.222 4.922 80.368 5.257 80.368 5.662 C 80.368 6.057 80.222 6.391 79.928 6.665 C 79.645 6.928 79.281 7.06 78.836 7.06 Z M 80.126 7.941 L 80.126 16.42 L 77.532 16.42 L 77.532 7.941 Z" fill="var(--token-bab5142a-9f6d-4043-b7bd-02888ac520b9, rgb(51, 51, 51))"></path><path d="M 20.684 21 L 0.106 8.855 L 0.179 0.541 L 20.758 12.687 Z" fill="var(--token-bab5142a-9f6d-4043-b7bd-02888ac520b9, rgb(51, 51, 51))"></path><path d="M 11.893 0.104 C 11.872 2.485 12.796 4.777 14.462 6.476 C 16.128 8.175 18.4 9.141 20.777 9.162 L 20.856 0.184 Z M 8.964 20.825 C 8.985 18.443 8.061 16.151 6.395 14.453 C 4.729 12.754 2.458 11.788 0.08 11.767 L 0.001 20.745 Z" fill="var(--token-bab5142a-9f6d-4043-b7bd-02888ac520b9, rgb(51, 51, 51))"></path></svg></defs><use href="#svg10980058274"></use></svg>