<svg style="width:100%;height:100%;" xmlns="http://www.w3.org/2000/svg"><defs><svg viewBox="0 0 103 25" id="svg8890825848"><path d="M 11.375 25 L 11.339 25 L 0 13.707 L 0 11.422 L 13.517 24.885 C 12.806 24.963 12.091 25.002 11.375 25 Z M 0 15.992 L 9.045 25 L 6.75 25 L 0 18.277 L 0 15.992 Z M 0 20.562 L 4.456 25 L 1.014 25 C 0.454 25 0 24.548 0 23.99 Z M 0 1.01 L 0 9.137 L 15.46 24.535 C 16.342 24.293 17.12 23.917 17.795 23.406 C 18.51 22.874 19.106 22.218 19.583 21.438 C 20.333 20.262 20.707 18.934 20.707 17.452 C 20.707 16.016 20.378 14.795 19.72 13.789 C 19.073 12.783 18.108 12.048 16.825 11.584 C 17.665 11.154 18.3 10.679 18.732 10.159 C 19.504 9.232 19.89 8.006 19.89 6.479 C 19.89 4.998 19.504 3.726 18.732 2.663 C 17.449 0.933 15.27 0.045 12.193 0 L 1.014 0 C 0.454 0 0 0.452 0 1.01 Z M 32.286 4.121 L 32.286 22.144 L 35.432 22.144 L 35.432 20.015 L 35.617 20.015 C 35.788 20.343 36.027 20.692 36.333 21.062 C 36.645 21.426 37.058 21.737 37.57 21.995 C 38.083 22.253 38.728 22.382 39.505 22.382 C 40.572 22.382 41.526 22.109 42.368 21.564 C 43.211 21.018 43.877 20.226 44.365 19.187 C 44.854 18.149 45.099 16.887 45.099 15.403 C 45.099 13.901 44.849 12.634 44.348 11.601 C 43.853 10.562 43.181 9.779 42.333 9.251 C 41.491 8.717 40.545 8.45 39.496 8.45 C 38.701 8.45 38.047 8.585 37.535 8.855 C 37.022 9.119 36.616 9.439 36.315 9.814 C 36.015 10.184 35.782 10.533 35.617 10.862 L 35.485 10.862 L 35.485 4.121 L 32.286 4.121 Z M 35.794 17.683 C 35.547 17.026 35.423 16.26 35.423 15.386 C 35.423 14.511 35.544 13.752 35.785 13.106 C 36.033 12.461 36.395 11.959 36.872 11.601 C 37.349 11.243 37.93 11.064 38.613 11.064 C 39.326 11.064 39.921 11.249 40.398 11.619 C 40.875 11.988 41.234 12.499 41.476 13.15 C 41.717 13.802 41.838 14.547 41.838 15.386 C 41.838 16.231 41.715 16.984 41.467 17.648 C 41.226 18.305 40.866 18.824 40.389 19.205 C 39.912 19.581 39.32 19.769 38.613 19.769 C 37.935 19.769 37.358 19.587 36.881 19.223 C 36.41 18.853 36.047 18.34 35.794 17.683 Z M 49.773 22.145 L 49.773 4.121 L 46.574 4.121 L 46.574 22.145 Z M 55.724 22.418 C 54.863 22.418 54.089 22.265 53.4 21.96 C 52.716 21.649 52.174 21.191 51.774 20.587 C 51.379 19.983 51.182 19.237 51.182 18.352 C 51.182 17.589 51.323 16.958 51.606 16.459 C 51.882 15.968 52.28 15.556 52.763 15.262 C 53.253 14.963 53.803 14.737 54.416 14.585 C 55.034 14.426 55.674 14.312 56.333 14.242 C 57.129 14.159 57.774 14.086 58.269 14.022 C 58.763 13.951 59.123 13.846 59.346 13.705 C 59.576 13.558 59.691 13.332 59.691 13.027 L 59.691 12.974 C 59.691 12.311 59.494 11.798 59.099 11.434 C 58.704 11.07 58.136 10.889 57.394 10.889 C 56.61 10.889 55.989 11.059 55.529 11.399 C 55.076 11.739 54.769 12.141 54.61 12.604 L 51.624 12.182 C 51.859 11.361 52.248 10.674 52.79 10.123 C 53.332 9.565 53.995 9.149 54.778 8.873 C 55.562 8.591 56.428 8.451 57.376 8.451 C 58.03 8.451 58.681 8.527 59.329 8.679 C 59.977 8.832 60.569 9.084 61.105 9.436 C 61.641 9.782 62.071 10.255 62.395 10.853 C 62.725 11.452 62.89 12.2 62.89 13.097 L 62.89 22.145 L 59.815 22.145 L 59.815 20.288 L 59.709 20.288 C 59.514 20.663 59.24 21.016 58.887 21.344 C 58.54 21.667 58.101 21.928 57.57 22.127 C 57.046 22.321 56.431 22.418 55.724 22.418 Z M 56.554 20.077 C 57.196 20.077 57.753 19.951 58.224 19.698 C 58.696 19.44 59.058 19.1 59.311 18.677 C 59.568 18.262 59.703 17.783 59.7 17.296 L 59.7 15.702 C 59.6 15.785 59.429 15.861 59.188 15.931 C 58.926 16.008 58.661 16.069 58.392 16.116 C 58.098 16.169 57.806 16.216 57.517 16.257 C 57.229 16.298 56.978 16.333 56.766 16.362 C 56.289 16.427 55.862 16.533 55.485 16.679 C 55.108 16.826 54.81 17.031 54.593 17.296 C 54.375 17.554 54.266 17.888 54.266 18.299 C 54.266 18.886 54.481 19.329 54.911 19.628 C 55.341 19.927 55.889 20.077 56.554 20.077 Z M 67.292 21.52 C 68.264 22.113 69.428 22.409 70.783 22.409 C 71.919 22.409 72.909 22.203 73.752 21.793 C 74.594 21.376 75.26 20.801 75.749 20.068 C 76.238 19.329 76.52 18.481 76.597 17.524 L 73.54 17.524 C 73.445 18.011 73.272 18.425 73.018 18.765 C 72.772 19.1 72.447 19.368 72.073 19.549 C 71.702 19.724 71.281 19.813 70.809 19.813 C 70.143 19.813 69.563 19.637 69.068 19.285 C 68.579 18.926 68.2 18.419 67.928 17.762 C 67.657 17.099 67.522 16.307 67.522 15.386 C 67.522 14.476 67.657 13.696 67.928 13.045 C 68.205 12.393 68.591 11.895 69.086 11.549 C 69.581 11.196 70.155 11.021 70.809 11.021 C 71.581 11.021 72.196 11.241 72.656 11.681 C 73.121 12.115 73.416 12.658 73.54 13.309 L 76.597 13.309 C 76.526 12.335 76.238 11.484 75.731 10.756 C 75.224 10.023 74.544 9.457 73.69 9.058 C 72.842 8.653 71.866 8.451 70.765 8.451 C 69.44 8.451 68.291 8.747 67.319 9.339 C 66.353 9.926 65.604 10.748 65.074 11.804 C 64.544 12.854 64.279 14.066 64.279 15.439 C 64.279 16.806 64.538 18.014 65.057 19.064 C 65.581 20.109 66.326 20.927 67.292 21.52 Z M 81.178 22.145 L 81.178 17.601 L 82.342 16.358 L 86.498 22.144 L 90.324 22.144 L 84.753 14.461 L 90.015 8.626 L 86.277 8.626 L 81.399 14.057 L 81.178 14.057 L 81.178 4.121 L 77.979 4.121 L 77.979 22.144 L 81.178 22.144 Z M 95.559 16.371 L 95.559 21.08 L 98.334 21.08 L 98.334 16.371 L 103.061 16.371 L 103.061 13.608 L 98.334 13.608 L 98.334 8.9 L 95.559 8.9 L 95.559 13.608 L 90.832 13.608 L 90.832 16.372 L 95.559 16.372 Z" fill="var(--token-bab5142a-9f6d-4043-b7bd-02888ac520b9, rgb(51, 51, 51))"></path></svg></defs><use href="#svg8890825848"></use></svg>